<?xml version="1.0" encoding="UTF-8" standalone="no"?>
<svg
   xmlns:dc="http://purl.org/dc/elements/1.1/"
   xmlns:cc="http://creativecommons.org/ns#"
   xmlns:rdf="http://www.w3.org/1999/02/22-rdf-syntax-ns#"
   xmlns:svg="http://www.w3.org/2000/svg"
   xmlns="http://www.w3.org/2000/svg"
   xmlns:sodipodi="http://sodipodi.sourceforge.net/DTD/sodipodi-0.dtd"
   xmlns:inkscape="http://www.inkscape.org/namespaces/inkscape"
   version="1.1"
   id="svg2"
   xml:space="preserve"
   width="875.93335"
   height="540.81335"
   viewBox="0 0 875.93335 540.81335"
   sodipodi:docname="4341137.eps"><metadata
     id="metadata8"><rdf:RDF><cc:Work
         rdf:about=""><dc:format>image/svg+xml</dc:format><dc:type
           rdf:resource="http://purl.org/dc/dcmitype/StillImage" /></cc:Work></rdf:RDF></metadata><defs
     id="defs6" /><sodipodi:namedview
     pagecolor="#ffffff"
     bordercolor="#666666"
     borderopacity="1"
     objecttolerance="10"
     gridtolerance="10"
     guidetolerance="10"
     inkscape:pageopacity="0"
     inkscape:pageshadow="2"
     inkscape:window-width="640"
     inkscape:window-height="480"
     id="namedview4" /><g
     id="g10"
     inkscape:groupmode="layer"
     inkscape:label="ink_ext_XXXXXX"
     transform="matrix(1.3333333,0,0,-1.3333333,0,540.81333)"><g
       id="g12"
       transform="scale(0.1)"><path
         d="M 1082.33,906.488 H 104.453 V 2725.18 H 1082.33 V 906.488"
         style="fill:#e7e8e5;fill-opacity:1;fill-rule:nonzero;stroke:none"
         id="path14" /><path
         d="M 1129.7,2725.18 H 57.0781 v 50.21 H 1129.7 v -50.21"
         style="fill:#d4d6d3;fill-opacity:1;fill-rule:nonzero;stroke:none"
         id="path16" /><path
         d="M 1467.04,2725.18 H 1129.7 v 50.21 h 337.34 v -50.21"
         style="fill:#e7e8e5;fill-opacity:1;fill-rule:nonzero;stroke:none"
         id="path18" /><path
         d="m 1082.33,906.488 h 331.297 v 1818.69 H 1082.33 Z"
         style="fill:#d4d6d3;fill-opacity:1;fill-rule:nonzero;stroke:none"
         id="path20" /><path
         d="m 975.82,2100.08 v 1.25 H 212.203 v 428.73 H 974.57 v -429.98 h 1.25 v 1.25 -1.25 h 1.25 v 432.48 H 209.703 V 2098.83 H 977.07 v 1.25 h -1.25"
         style="fill:#bebfbd;fill-opacity:1;fill-rule:nonzero;stroke:none"
         id="path22" /><path
         d="M 635.68,2319.92 H 486.305 v 85.85 H 635.68 v -85.85"
         style="fill:#bebfbd;fill-opacity:1;fill-rule:nonzero;stroke:none"
         id="path24" /><path
         d="m 679.836,2326.39 v 1.25 H 531.711 v 70.41 h 146.875 v -71.66 h 1.25 v 1.25 -1.25 h 1.25 v 74.16 H 529.211 v -75.41 h 151.875 v 1.25 h -1.25"
         style="fill:#bebfbd;fill-opacity:1;fill-rule:nonzero;stroke:none"
         id="path26" /><path
         d="m 975.82,1555.28 v 1.25 H 212.203 v 428.73 H 974.57 v -429.98 h 1.25 v 1.25 -1.25 h 1.25 v 432.48 H 209.703 V 1554.03 H 977.07 v 1.25 h -1.25"
         style="fill:#bebfbd;fill-opacity:1;fill-rule:nonzero;stroke:none"
         id="path28" /><path
         d="M 635.68,1775.11 H 486.305 v 85.86 H 635.68 v -85.86"
         style="fill:#bebfbd;fill-opacity:1;fill-rule:nonzero;stroke:none"
         id="path30" /><path
         d="m 679.836,1781.58 v 1.25 H 531.711 v 70.41 h 146.875 v -71.66 h 1.25 v 1.25 -1.25 h 1.25 v 74.16 H 529.211 v -75.41 h 151.875 v 1.25 h -1.25"
         style="fill:#bebfbd;fill-opacity:1;fill-rule:nonzero;stroke:none"
         id="path32" /><path
         d="m 975.82,1010.47 v 1.25 H 212.203 v 428.73 H 974.57 v -429.98 h 1.25 v 1.25 -1.25 h 1.25 v 432.48 H 209.703 V 1009.22 H 977.07 v 1.25 h -1.25"
         style="fill:#bebfbd;fill-opacity:1;fill-rule:nonzero;stroke:none"
         id="path34" /><path
         d="M 635.68,1230.3 H 486.305 v 85.86 H 635.68 v -85.86"
         style="fill:#bebfbd;fill-opacity:1;fill-rule:nonzero;stroke:none"
         id="path36" /><path
         d="m 679.836,1236.78 v 1.25 H 531.711 v 70.41 h 146.875 v -71.66 h 1.25 v 1.25 -1.25 h 1.25 v 74.16 H 529.211 v -75.41 h 151.875 v 1.25 h -1.25"
         style="fill:#bebfbd;fill-opacity:1;fill-rule:nonzero;stroke:none"
         id="path38" /><path
         d="M 6077.52,906.488 H 5099.65 V 2195.18 h 977.87 V 906.488"
         style="fill:#e7e8e5;fill-opacity:1;fill-rule:nonzero;stroke:none"
         id="path40" /><path
         d="M 6124.9,2195.18 H 5052.27 v 50.21 H 6124.9 v -50.21"
         style="fill:#d4d6d3;fill-opacity:1;fill-rule:nonzero;stroke:none"
         id="path42" /><path
         d="M 6462.23,2195.18 H 6124.9 v 50.21 h 337.33 v -50.21"
         style="fill:#e7e8e5;fill-opacity:1;fill-rule:nonzero;stroke:none"
         id="path44" /><path
         d="M 6408.83,906.488 H 6077.52 V 2195.18 h 331.31 V 906.488"
         style="fill:#d4d6d3;fill-opacity:1;fill-rule:nonzero;stroke:none"
         id="path46" /><path
         d="m 5971.02,1570.08 h -764.87 v 431.23 h 764.87 v -431.23"
         style="fill:#999b9b;fill-opacity:1;fill-rule:nonzero;stroke:none"
         id="path48" /><path
         d="m 5896.52,1689.67 h -582.25 v 422.07 h 582.25 v -422.07"
         style="fill:#bebfbd;fill-opacity:1;fill-rule:nonzero;stroke:none"
         id="path50" /><path
         d="m 5520,2155.45 h -205.73 v -43.71 h 217.54 l -11.81,43.71"
         style="fill:#bebfbd;fill-opacity:1;fill-rule:nonzero;stroke:none"
         id="path52" /><path
         d="m 5895,1689.67 h -582.26 l -44.91,387.05 h 582.26 L 5895,1689.67"
         style="fill:#999b9b;fill-opacity:1;fill-rule:nonzero;stroke:none"
         id="path54" /><path
         d="m 5468.9,2116.8 h -205.72 l 4.65,-40.08 h 217.55 l -16.48,40.08"
         style="fill:#999b9b;fill-opacity:1;fill-rule:nonzero;stroke:none"
         id="path56" /><path
         d="m 4837.67,1570.08 h 764.867 v 431.23 H 4837.67 Z"
         style="fill:#e7e8e5;fill-opacity:1;fill-rule:nonzero;stroke:none"
         id="path58" /><path
         d="m 5602.54,1570.08 v 1.25 h -763.62 v 428.73 h 762.37 v -429.98 h 1.25 v 1.25 -1.25 h 1.25 v 432.48 h -767.37 v -433.73 h 767.37 v 1.25 h -1.25"
         style="fill:#bebfbd;fill-opacity:1;fill-rule:nonzero;stroke:none"
         id="path60" /><path
         d="m 5262.4,1789.91 h -149.38 v 85.86 h 149.38 v -85.86"
         style="fill:#bebfbd;fill-opacity:1;fill-rule:nonzero;stroke:none"
         id="path62" /><path
         d="m 5306.55,1796.39 v 1.25 h -148.13 v 70.41 h 146.88 v -71.66 h 1.25 v 1.25 -1.25 h 1.25 v 74.16 h -151.88 v -75.41 h 151.88 v 1.25 h -1.25"
         style="fill:#bebfbd;fill-opacity:1;fill-rule:nonzero;stroke:none"
         id="path64" /><path
         d="m 5971.02,1570.08 h -366.61 v 366.61 h 366.61 v -366.61"
         style="fill:#d4d6d3;fill-opacity:1;fill-rule:nonzero;stroke:none"
         id="path66" /><path
         d="m 5971.02,1025.28 v 1.25 H 5207.4 v 428.73 h 762.37 v -429.98 h 1.25 v 1.25 -1.25 h 1.25 v 432.48 H 5204.9 v -433.73 h 767.37 v 1.25 h -1.25"
         style="fill:#bebfbd;fill-opacity:1;fill-rule:nonzero;stroke:none"
         id="path68" /><path
         d="M 5630.88,1245.11 H 5481.5 v 85.86 h 149.38 v -85.86"
         style="fill:#bebfbd;fill-opacity:1;fill-rule:nonzero;stroke:none"
         id="path70" /><path
         d="m 5675.04,1251.58 v 1.25 h -148.13 v 70.41 h 146.88 v -71.66 h 1.25 v 1.25 -1.25 h 1.25 v 74.16 h -151.88 v -75.41 h 151.88 v 1.25 h -1.25"
         style="fill:#bebfbd;fill-opacity:1;fill-rule:nonzero;stroke:none"
         id="path72" /><path
         d="m 0,906.488 814.914,2.434 814.916,0.887 1629.83,1.671 1629.82,-1.66 814.92,-0.879 814.91,-2.453 -814.91,-2.449 -814.92,-0.871 L 3259.66,901.5 1629.83,903.18 814.914,904.051 0,906.488"
         style="fill:#17282f;fill-opacity:1;fill-rule:nonzero;stroke:none"
         id="path74" /><path
         d="M 6127.08,314.199 C 6127.08,140.68 4843.29,0 3259.66,0 1676.02,0 392.234,140.68 392.234,314.199 c 0,173.531 1283.786,314.199 2867.426,314.199 1583.63,0 2867.42,-140.668 2867.42,-314.199"
         style="fill:#e7e8e5;fill-opacity:1;fill-rule:nonzero;stroke:none"
         id="path76" /><path
         d="m 6253.16,1619.62 c -8.17,-34.75 -16.81,-68.94 -18.49,-104.6 0.94,-1.75 0.77,-8.21 -0.28,-6.45 -0.21,-5.75 -8.95,-4.7 -8.96,0.96 0.08,3.69 0.18,7.4 0.36,10.98 -20.43,25.38 -50.11,41.46 -74.1,63.51 -19.39,17.84 -33.27,39.11 -40.61,64.62 -19.89,68.57 -1.25,141.23 -25.17,209.61 -20.63,58.98 -57.63,110.24 -88.95,163.67 -33.04,56.5 -57.43,115.88 -59.87,182.05 -1.95,50.67 4.1,118.2 42.69,156.16 40.91,40.28 91.61,10.1 122.96,-25.83 90.82,-104.23 132.84,-235.95 149.84,-370.64 9.36,-74.55 19.09,-149.54 16.84,-224.78 -1.27,-40.44 -7.08,-79.98 -16.26,-119.26"
         style="fill:#fabb1e;fill-opacity:1;fill-rule:nonzero;stroke:none"
         id="path78" /><path
         d="m 6235.07,1487.65 c 4.69,70.45 4.4,141.01 -2.49,211.18 l 0.35,0.77 c 1.14,57.08 5.67,113.94 3.43,171.09 -2.43,62.09 -11.53,122.95 -25.13,183.51 l -1.11,-0.17 c 11.2,-59.09 17.7,-119.38 19.86,-179.47 1.16,-32.25 0.93,-64.53 -0.77,-96.76 -0.56,-10.47 -1.53,-21.04 -2.22,-31.62 l -0.02,0.1 c -23.02,160.65 -82.31,313.05 -169.83,449.44 -1.2,1.85 -4.48,-0.13 -3.31,-2.03 63.02,-102.91 109.49,-215.95 138.23,-333.24 -43.67,80.91 -109.64,147.45 -158.59,225.21 l -0.74,-0.46 c 43.97,-86.56 116.6,-154.82 162.9,-240.1 8.04,-34.76 14.61,-69.84 19.5,-105.15 6.73,-48.46 9.89,-97.23 10.54,-146.06 -26.6,49.73 -54.22,97.28 -75.98,149.87 -0.58,1.41 -2.58,0.45 -2.11,-0.95 18.51,-54.62 43.39,-113.47 78.24,-160.06 0.18,-34.57 -0.84,-69.16 -2.87,-103.7 -5.44,-92.2 -21.19,-183.16 -28.46,-275.06 -0.23,-2.77 3.67,-3.09 4.21,-0.45 19.15,92.75 30.07,189.67 36.37,284.11"
         style="fill:#17282f;fill-opacity:1;fill-rule:nonzero;stroke:none"
         id="path80" /><path
         d="m 6137.16,2198.67 -1.02,-0.46 c 16.84,-46.57 26.35,-93.74 38.52,-141.48 0.55,-2.18 3.71,-1.72 3.47,0.57 -4.95,48.42 -22.23,96.73 -40.97,141.37"
         style="fill:#17282f;fill-opacity:1;fill-rule:nonzero;stroke:none"
         id="path82" /><path
         d="m 6564.78,2003.5 c -10.91,-27.35 -24.46,-53.83 -38.73,-79.56 -30.32,-55.07 -61.95,-105.53 -67.67,-169.65 -2.56,-28.62 -3.47,-57.39 -12.19,-84.97 -7.54,-23.89 -19.79,-45.92 -33.88,-66.52 -32.86,-47.89 -73.94,-89.15 -104.39,-138.82 -31.69,-51.63 -55.06,-108.44 -69.37,-167.27 -0.76,-3.21 -5.84,-2.35 -5.09,0.86 l 0.2,0.74 -0.3,0.68 c -4.83,137.48 6.15,276.05 48.08,407.76 18.35,57.59 40.96,114.87 66.63,169.62 22.46,47.75 50.46,93.67 89.91,129.35 25.58,23.05 81.08,66.73 117.51,43.62 17.49,-11.12 16.19,-28.67 9.29,-45.84"
         style="fill:#fabb1e;fill-opacity:1;fill-rule:nonzero;stroke:none"
         id="path84" /><path
         d="m 6426.61,1691.82 c -23.59,-40.3 -51.53,-77.83 -79.9,-114.85 -13.31,-17.39 -26.81,-34.62 -40.1,-52.02 -6.28,-8.22 -13.31,-16.41 -19.08,-25.24 3.63,14.46 7.17,28.93 10.86,43.38 17.73,69.47 34.79,139.54 61.22,206.34 25.83,65.29 60.17,126.6 95.46,187.13 0.92,1.6 -1.65,2.75 -2.58,1.22 -29.06,-47.79 -58.54,-95.5 -82.96,-145.87 -13.65,-28.14 -25.13,-57.08 -35.22,-86.55 11.89,63.16 26.12,123.79 46.88,184.93 l -0.83,0.38 c -25.33,-59.95 -43.57,-127.38 -48.64,-192.35 l 0.09,-0.31 c -5.95,-17.85 -11.43,-35.88 -16.55,-54.05 -21.66,-76.92 -40.67,-154.64 -58.31,-232.64 0.3,51.5 3.54,102.08 13.27,152.9 0.23,1.16 -1.52,1.44 -1.8,0.3 -12.78,-52.33 -18.55,-107.41 -13.28,-161.17 -6.67,-29.67 -13.15,-59.35 -19.49,-89.06 -13.51,-63.38 -30.12,-127.88 -38.02,-192.23 -0.2,-1.67 2.12,-2.01 2.55,-0.44 9.43,34.7 15.12,70.66 22.83,105.77 7.74,35.23 15.71,70.41 23.91,105.53 11.93,51.15 24.44,102.17 37.19,153.13 8.51,18.69 24.98,35.27 37.31,50.94 13.54,17.2 27.07,34.41 40.25,51.88 24.52,32.55 47.03,66.36 66.15,102.38 l -1.21,0.57"
         style="fill:#17282f;fill-opacity:1;fill-rule:nonzero;stroke:none"
         id="path86" /><path
         d="m 6432.47,1750.62 c -29.82,-38.27 -56.89,-80.64 -78.19,-124.24 l 0.95,-0.61 c 26.32,41.24 52.19,82.8 78.45,124.08 l -1.21,0.77"
         style="fill:#17282f;fill-opacity:1;fill-rule:nonzero;stroke:none"
         id="path88" /><path
         d="m 5847.19,1873.15 c 17.83,-30.69 38.16,-67.54 30.51,-104.39 -4.85,-23.32 -21.92,-42.25 -25,-66.04 -6.9,-52.52 45.43,-87.22 83.3,-112.03 94.41,-61.95 223.89,-117.17 241.06,-243.67 0.64,-4.48 8.39,-3.36 7.83,1.03 l -0.19,0.84 0.47,0.74 c 12.22,64.09 11.94,129.4 -1.77,193.19 -14.09,65.21 -42.54,123.79 -76.13,181.08 -56.8,96.92 -116.97,196.17 -202.89,270.43 -23.79,20.52 -72.48,57.46 -91.41,11.1 -18.38,-45.06 12.4,-94.87 34.22,-132.28"
         style="fill:#fabb1e;fill-opacity:1;fill-rule:nonzero;stroke:none"
         id="path90" /><path
         d="m 5933.61,1667.65 c 62.59,-67.76 162.1,-105.74 215.98,-181.65 -31.93,116.34 -84.77,220.94 -166,311.8 -2.08,2.34 1.17,5.65 3.46,3.46 59.47,-57.16 103.5,-123.98 135.64,-196.46 -14.45,51.75 -34.67,100.71 -58.41,149.38 -0.89,1.84 1.71,3.42 2.77,1.61 30.26,-51.58 50.37,-109.5 62.96,-167.91 70.99,-171.86 77.57,-373.43 62.69,-554.58 -0.21,-2.58 -4.16,-2.66 -4.08,0 4.08,142.76 1.77,288.01 -32.44,427.42 -0.71,2.92 -1.51,5.79 -2.25,8.69 -58.61,81.7 -157.69,119.57 -221.4,197.15 l 1.08,1.09"
         style="fill:#17282f;fill-opacity:1;fill-rule:nonzero;stroke:none"
         id="path92" /><path
         d="m 5919.1,1725.84 c 32.86,-30.13 65.2,-60.97 98.11,-91.1 l -0.48,-0.63 c -35.82,24.24 -72.2,56.27 -99.59,89.78 -1.12,1.36 0.62,3.18 1.96,1.95"
         style="fill:#17282f;fill-opacity:1;fill-rule:nonzero;stroke:none"
         id="path94" /><path
         d="m 5913.9,1856.46 c 29.85,-47.83 61.15,-92.7 98.31,-135.24 l -0.83,-0.82 c -39.9,38.43 -75.34,84.92 -99.23,135.02 -0.57,1.17 1.05,2.16 1.75,1.04"
         style="fill:#17282f;fill-opacity:1;fill-rule:nonzero;stroke:none"
         id="path96" /><path
         d="m 6061.84,905.539 h 287.82 l -38.79,387.231 h -204.7 l -44.33,-387.231"
         style="fill:#33535f;fill-opacity:1;fill-rule:nonzero;stroke:none"
         id="path98" /><path
         d="m 6098.94,1229.83 h 218.26 l -6.31,62.95 h -204.74 l -7.21,-62.95"
         style="fill:#17282f;fill-opacity:1;fill-rule:nonzero;stroke:none"
         id="path100" /><path
         d="m 6070.86,1273.84 h 269.78 v 61.83 h -269.78 v -61.83"
         style="fill:#33535f;fill-opacity:1;fill-rule:nonzero;stroke:none"
         id="path102" /><path
         d="m 1726.13,214.051 c -23.29,-7.512 -687.07,1.09 -712.12,17.488 -9.62,6.063 -14.01,102.859 -15.947,219.961 -0.008,1.23 -0.02,2.449 -0.028,3.672 -0.449,24.129 -0.765,48.976 -0.801,74.168 -0.011,3.469 -0.019,6.93 -0.129,10.39 -0.929,169.008 1.75,344.36 1.75,344.36 l 444.035,-4.449 -13.36,-341.121 -0.51,-13.508 -2.68,-70.614 -0.26,-7.269 c 0,0 252.61,-116.93 278.26,-137.859 25.45,-20.852 45.08,-87.809 21.79,-95.219"
         style="fill:#f25553;fill-opacity:1;fill-rule:nonzero;stroke:none"
         id="path104" /><path
         d="m 1526.67,401.73 c -1.73,0.508 -2.64,1.02 -2.74,1.52 0,0 1.01,-0.5 2.74,-1.52"
         style="fill:#fabb1e;fill-opacity:1;fill-rule:nonzero;stroke:none"
         id="path106" /><path
         d="m 1726.1,214.09 c -23.26,-7.52 -687.04,1.012 -712.12,17.461 -8.53,5.379 -13,82.449 -15.23,181.75 121.65,-25.379 593.01,-120.731 605.9,-80.422 5.08,15.84 -35.23,43.262 -60.72,58.691 69.66,-33.199 146.83,-71.179 160.44,-82.34 25.38,-20.82 45.08,-87.73 21.73,-95.14"
         style="fill:#fabb1e;fill-opacity:1;fill-rule:nonzero;stroke:none"
         id="path108" /><path
         d="m 1309.16,215.102 c -20.76,0.488 -41.24,1.027 -61.15,1.597 19.89,-0.57 40.38,-1.09 61.12,-1.578 l 0.03,-0.019 M 998.805,413.289 c -0.024,0.012 -0.035,0.012 -0.055,0.012 0.016,0 0.035,0 0.055,-0.012 v 0"
         style="fill:#cccdcb;fill-opacity:1;fill-rule:nonzero;stroke:none"
         id="path110" /><path
         d="m 1069.5,398.828 c -29.07,5.84 -53.41,10.852 -70.695,14.461 v 0 c 17.255,-3.551 41.605,-8.621 70.615,-14.398 l 0.08,-0.063"
         style="fill:#e34f49;fill-opacity:1;fill-rule:nonzero;stroke:none"
         id="path112" /><path
         d="m 1309.13,215.121 c -20.74,0.488 -41.23,1.008 -61.12,1.578 -123.29,3.563 -224.5,8.641 -234.03,14.852 v 0 c -8.53,5.379 -13,82.449 -15.23,181.75 v 0 c 0.02,0 0.031,0 0.055,-0.012 17.285,-3.609 41.625,-8.621 70.695,-14.461 l 239.63,-183.707"
         style="fill:#f4ac12;fill-opacity:1;fill-rule:nonzero;stroke:none"
         id="path114" /><path
         d="m 862.613,2796.17 c 0,0 99.664,-1121.64 115.91,-1207.24 3.758,-19.49 6.094,-125.5 7.618,-261.77 3.453,-297.31 1.394,-833.582 1.394,-833.582 h 467.905 c 0,0 -13.89,929.132 -34.6,1100.122 -20.71,171.11 -153.12,1202.47 -153.12,1202.47 H 862.613"
         style="fill:#273e47;fill-opacity:1;fill-rule:nonzero;stroke:none"
         id="path116" /><path
         d="m 1434.3,575.102 c -73.01,1.519 -52.04,2.117 -125.06,2.82 -35.73,0.34 -270.56,2.387 -303.94,-3.133 v -1.5 c 33.39,-5.519 268.21,-3.469 303.94,-3.129 73.02,0.699 52.05,1.301 125.06,2.809 1.37,0.031 1.37,2.101 0,2.133"
         style="fill:#17282f;fill-opacity:1;fill-rule:nonzero;stroke:none"
         id="path118" /><path
         d="m 1076.44,1106.25 c -0.52,67.86 -1.03,135.72 -1.52,203.6 -0.47,65.73 -0.38,131.52 -3.51,197.19 -6.33,132.97 -33.31,263.7 -52.49,395.17 -19.197,131.54 -35.197,263.54 -49.693,395.67 -16.262,148.25 -30.622,296.69 -45.86,445.04 -0.101,1.01 -1.672,0.99 -1.582,-0.04 22.039,-264.87 46.645,-529.68 83.315,-792.99 9.12,-65.49 19.11,-130.84 29.9,-196.08 10.92,-66.03 21.78,-132.11 26.98,-198.89 5.1,-65.36 5.93,-130.95 6.6,-196.48 0.7,-67.82 1.37,-135.64 2.02,-203.46 1.47,-150.65 2.93,-382.539 4.39,-533.191 0.02,-2.91 4.54,-2.801 4.52,0.109 -1.03,134.372 -2.05,349.981 -3.07,484.352"
         style="fill:#17282f;fill-opacity:1;fill-rule:nonzero;stroke:none"
         id="path120" /><path
         d="m 763.961,2796.17 c 0,0 198.316,-1121.64 214.562,-1207.24 3.758,-19.49 6.094,-125.5 7.618,-261.77 l 0.101,-0.41 222.988,1469.42 H 763.961"
         style="fill:#17282f;fill-opacity:1;fill-rule:nonzero;stroke:none"
         id="path122" /><path
         d="m 1182.77,174.48 c -23.76,-5.839 -685.266,49.758 -709.086,67.891 -9.168,6.719 -6.692,103.59 -0.329,220.539 0.079,1.219 0.157,2.442 0.235,3.66 1.258,24.11 2.707,48.918 4.449,74.051 0.238,3.449 0.481,6.91 0.613,10.367 11.043,168.653 26.133,343.371 26.133,343.371 l 442.61,-35.89 -37.493,-339.328 -1.461,-13.43 -7.675,-70.25 -0.774,-7.231 c 0,0 243.688,-134.531 267.798,-157.218 23.91,-22.602 38.75,-90.782 14.98,-96.532"
         style="fill:#f25553;fill-opacity:1;fill-rule:nonzero;stroke:none"
         id="path124" /><path
         d="m 1182.74,174.469 c -23.76,-5.879 -685.205,49.761 -709.064,67.941 -7.824,5.692 -7.215,77.281 -2.848,170.801 C 573.289,387 1067.09,262.82 1082.21,303.641 c 3.15,8.629 -7.31,21.429 -21.52,33.91 51.18,-29.653 97.28,-57.262 107.12,-66.5 23.87,-22.653 38.7,-90.781 14.93,-96.582"
         style="fill:#fabb1e;fill-opacity:1;fill-rule:nonzero;stroke:none"
         id="path126" /><path
         d="m 919.836,468.301 -467.473,19.82 c 0,0 127.602,1025.819 129.961,1088.859 3.52,93.74 48.469,480.6 86.207,793.82 0,0 -71.562,169.58 62.379,425.75 h 537.22 c 0,0 -36.01,-243.76 -97.64,-398.33 0,0 -46.94,-14.56 -119.44,-54.53 0,0 -53.48,-698.36 -55.476,-785.47 C 991.613,1386.03 919.836,468.301 919.836,468.301"
         style="fill:#273e47;fill-opacity:1;fill-rule:nonzero;stroke:none"
         id="path128" /><path
         d="m 907.398,553.98 c -72.878,4.61 -51.898,4.309 -124.824,8.11 -35.691,1.859 -270.215,13.851 -303.801,9.738 l -0.066,-1.488 c 33.133,-6.942 267.824,-14.84 303.535,-16 72.988,-2.391 52.059,-0.922 125.067,-2.488 1.371,-0.032 1.457,2.039 0.089,2.128"
         style="fill:#17282f;fill-opacity:1;fill-rule:nonzero;stroke:none"
         id="path130" /><path
         d="m 766.391,2773.67 c -27.696,-60.06 -53.555,-123.04 -63.254,-188.87 -4.594,-31.2 -6.801,-121.91 23.109,-209.18 0,0 -3.906,-55.29 -8.043,-90.65 -4.152,-35.49 -8.324,-70.98 -12.414,-106.49 C 697.516,2106.76 689.25,2035.03 680.98,1963.3 664.523,1820.55 648.219,1677.79 631.863,1535.02 615.5,1392.23 599.234,1249.43 583.316,1106.58 567.449,964.18 550.445,821.859 536.344,679.27 c -1.758,-17.739 -3.504,-35.489 -5.223,-53.239 -0.176,-1.781 2.914,-2.14 3.152,-0.351 18.969,142.308 35.231,284.961 52.172,427.53 16.875,141.93 33.34,283.91 49.989,425.87 16.722,142.71 33.132,285.44 49.55,428.19 16.188,140.72 34.344,281.39 48.262,422.36 1.629,16.54 2.113,32.83 1.219,49.02 0,0 -29.867,100.18 -26.336,164.88 3.695,67.65 19.832,119.06 44.086,181.4 6.062,15.59 12.301,31.12 18.371,46.71 1.144,2.95 -3.867,4.92 -5.195,2.03"
         style="fill:#17282f;fill-opacity:1;fill-rule:nonzero;stroke:none"
         id="path132" /><path
         d="m 1190.87,2408.82 c -48.41,-16.66 -95.15,-40.33 -139.82,-65.13 -1.76,-0.97 -0.6,-3.69 1.3,-2.87 47.1,20.23 95.13,39.58 141.06,62.38 3.61,1.78 1.18,6.89 -2.54,5.62"
         style="fill:#17282f;fill-opacity:1;fill-rule:nonzero;stroke:none"
         id="path134" /><path
         d="m 1125.03,2486.62 c 4.67,28.07 8.42,56.23 10.83,84.58 4.5,52.93 4.72,105.86 -1.71,158.63 -0.21,1.73 -2.71,1.6 -2.71,-0.15 0.06,-73.28 -1.86,-146.41 -12.81,-218.98 -5.27,-34.87 -22.83,-87.38 13.64,-92.75 37.16,-5.46 61.19,82.49 65.72,106.54 12.66,67.14 13.16,139.62 7.85,207.54 -0.12,1.63 -2.98,1.99 -2.97,0.24 0.38,-55.93 -3.19,-105.12 -7.9,-157.39 -2.19,-24.26 -21.71,-158.35 -63.78,-148.57 -7.04,1.64 -10.64,8.57 -11.74,19.19 -1.33,12.76 3.47,28.42 5.58,41.12"
         style="fill:#17282f;fill-opacity:1;fill-rule:nonzero;stroke:none"
         id="path136" /><path
         d="m 1132.31,2422.7 c -3.8,-9 -6.86,-18.38 -9.46,-27.8 -2.02,-7.31 -4.77,-15.21 -3.94,-22.84 0.16,-1.48 2.13,-1.62 2.92,-0.62 4.93,6.26 7.01,14.81 9.77,22.23 3.2,8.59 6.59,17.13 9.54,25.81 1.96,5.77 -6.49,8.77 -8.83,3.22"
         style="fill:#17282f;fill-opacity:1;fill-rule:nonzero;stroke:none"
         id="path138" /><path
         d="m 979.988,3770.94 c -87.05,-74.63 -62.816,-183.47 -99.179,-242.5 -22.235,-36.1 -94.645,-74.23 -109.039,-115.83 -23.657,-68.35 34.293,-92.9 21.332,-130.04 -18.36,-52.64 -88.832,-48.54 -101.524,-134.65 -12.687,-86.11 82.047,-177.69 306.891,-202.5 224.841,-24.81 348.371,57.51 356.431,130.56 8.06,73.05 -66.74,97.36 -71.83,151.93 -3.26,34.86 42.93,59.13 45.26,123.29 2.34,64.16 -60.18,85.02 -69.13,139.5 -9,54.74 19.88,186.89 -60.18,254.49 -80.07,67.6 -176.08,62.58 -219.032,25.75"
         style="fill:#17282f;fill-opacity:1;fill-rule:nonzero;stroke:none"
         id="path140" /><path
         d="m 990.078,3768.99 c -24.789,-17.45 -43.703,-39.89 -57.797,-66.68 -14.636,-27.83 -24.332,-58.01 -32.136,-88.38 -4.618,-17.95 -8.844,-36.38 -17.461,-52.92 -7.461,-14.34 -18.262,-26.47 -30.188,-37.25 -24.316,-22.01 -53.348,-38.72 -75.195,-63.44 -20.688,-23.41 -36.785,-54.72 -28.524,-86.63 4.493,-17.35 15.938,-31.51 23.043,-47.71 6.727,-15.34 9.453,-34.41 -3.718,-47.16 -11.25,-10.89 -27.543,-15.88 -40.305,-24.8 -12.527,-8.76 -23.731,-19.53 -32.813,-31.82 -18.527,-25.09 -26.531,-55.65 -20.699,-86.47 13.227,-69.94 78.852,-109.73 139.438,-134.78 8.449,-3.49 16.933,-6.89 25.429,-10.26 1.309,-0.53 2.422,1.36 1.086,1.96 -60.8,27.21 -131.363,59.15 -154.718,127.12 -10.516,30.62 -7.079,62.97 10.484,90.25 8.437,13.11 19.598,24.57 32.117,33.81 12.234,9.03 26.356,14.57 38.789,23.15 12.598,8.68 19.844,21.43 19.117,36.94 -0.769,16.42 -8.797,30.76 -16.734,44.7 -8.406,14.76 -15.535,29.67 -14.348,47.1 1.114,16.33 8.684,31.75 17.993,44.93 18.91,26.8 46.941,44.39 72.058,64.68 25.274,20.42 45.492,43.97 54.719,75.68 4.664,16.04 7.555,32.54 11.586,48.74 3.73,15.02 8.066,29.91 13.41,44.44 10.566,28.77 25.605,56.62 47.527,78.36 5.742,5.69 11.832,10.78 18.578,15.25 l -0.738,1.19"
         style="fill:#17282f;fill-opacity:1;fill-rule:nonzero;stroke:none"
         id="path142" /><path
         d="m 1364.89,3129.56 c -2.79,11.83 -8.02,23.18 -15.56,32.73 -7.82,9.91 -17.28,18.28 -25.94,27.41 -8.21,8.65 -15.99,18.39 -18.38,30.37 -2.88,14.37 3.15,28.16 9.9,40.51 7.07,12.97 14.94,25.27 20.13,39.18 5,13.43 7.77,27.62 8.56,41.92 1.65,29.89 -7.15,58.27 -22.63,83.61 -7.67,12.55 -16.3,24.49 -24.05,36.99 -8.55,13.76 -15.29,28.14 -19.94,43.67 -10.12,33.86 -12.31,69.57 -20.59,103.89 -8.48,35.17 -21.14,69.24 -36.51,101.96 l -1.2,-0.73 c 13.95,-29.49 24.4,-60.39 31.94,-92.12 7.14,-30.09 9.89,-60.75 15.2,-91.15 2.6,-14.88 5.93,-29.69 11.41,-43.81 5.13,-13.21 12.13,-25.54 19.52,-37.59 15.19,-24.77 30.89,-49.22 35.08,-78.6 4.15,-29.06 -0.78,-58.22 -14.5,-84.16 -11.82,-22.35 -28.38,-46.99 -18.04,-73.17 8.74,-22.16 29.88,-35.44 43.91,-53.8 15.46,-20.24 19.97,-46.3 15.21,-71.07 -12.11,-62.95 -75.19,-94.19 -134.27,-97.3 -1.84,-0.1 -1.78,-2.9 0.07,-2.87 51.35,0.61 107.23,23.18 131.3,71.25 11.17,22.3 15.13,48.49 9.38,72.88"
         style="fill:#17282f;fill-opacity:1;fill-rule:nonzero;stroke:none"
         id="path144" /><path
         d="m 1109.76,3232.06 c 32.01,-84.37 182.01,-392.16 294.62,-416.25 125.84,-26.92 369.54,69.61 527.01,137.62 56.38,24.34 -81.21,218.93 -143.19,241.7 -37.22,13.66 -296.12,-119.76 -353.41,-119.76 -32.34,0 -105.15,118.89 -249.14,231.16 -78.94,61.54 -118.95,39.04 -75.89,-74.47"
         style="fill:#f25553;fill-opacity:1;fill-rule:nonzero;stroke:none"
         id="path146" /><path
         d="m 1891.55,2941.74 c 33.72,9.79 223.93,64.81 262.19,90.46 38.26,25.66 143,107.46 126.33,138.75 -16.67,31.3 -49.25,9.8 -49.25,9.8 0,0 38.76,41.55 19.11,71.51 -19.65,29.97 -69.23,-5.13 -69.23,-5.13 0,0 36.68,45.57 14.95,74.06 -21.74,28.49 -65.68,-15.16 -65.68,-15.16 0,0 35.49,40.1 7.7,56.04 -33.42,19.17 -90.51,-62.15 -134.87,-87.3 -10.07,-5.72 -212.42,-101.23 -212.42,-101.23 l 101.17,-231.8"
         style="fill:#f25553;fill-opacity:1;fill-rule:nonzero;stroke:none"
         id="path148" /><path
         d="m 2133.81,3309.7 c -42.12,-59.7 -70.88,-78.54 -137.31,-106.1 -1.3,-0.54 -0.79,-2.6 0.62,-2.16 67.51,21.08 106.98,39.49 139.68,106.36 1.6,3.27 -0.99,4.74 -2.99,1.9"
         style="fill:#17282f;fill-opacity:1;fill-rule:nonzero;stroke:none"
         id="path150" /><path
         d="m 2183.95,3251.93 c -49.16,-58.19 -80.16,-78.89 -147.62,-112.88 -0.96,-0.48 -0.24,-2.15 0.76,-1.74 68.97,27.8 107.93,47.09 149.41,111.68 1.88,2.92 -0.3,5.6 -2.55,2.94"
         style="fill:#17282f;fill-opacity:1;fill-rule:nonzero;stroke:none"
         id="path152" /><path
         d="m 2227.33,3179.13 c -51.66,-52.9 -84.68,-77.07 -154.4,-101.66 -1.65,-0.58 -0.96,-3.03 0.75,-2.61 73.53,18.16 114.96,48.01 155.09,102.53 2.74,3.71 1.81,5.07 -1.44,1.74"
         style="fill:#17282f;fill-opacity:1;fill-rule:nonzero;stroke:none"
         id="path154" /><path
         d="m 1731.45,3178.61 c 0,0 55.22,83.1 87.28,108.96 32.05,25.86 186.99,78.26 200.2,45.44 17.06,-42.37 -66.42,-90.24 -110.37,-108.34 0,0 39.57,-97.98 -12.91,-145.3 -52.48,-47.32 -164.2,99.24 -164.2,99.24"
         style="fill:#f25553;fill-opacity:1;fill-rule:nonzero;stroke:none"
         id="path156" /><path
         d="m 2019.8,3319.82 c -12.31,-49.86 -71.54,-69.89 -112.86,-90.64 -3.14,-1.58 -2.98,-4.66 -1.3,-6.83 13.84,-42.18 21.09,-105.7 -7.1,-143.13 -0.83,-1.09 0.62,-2.42 1.59,-1.42 35.68,36.03 33.66,99.02 15.54,144.25 42.71,20.61 101.23,43.31 104.62,97.68 l -0.49,0.09"
         style="fill:#17282f;fill-opacity:1;fill-rule:nonzero;stroke:none"
         id="path158" /><path
         d="m 1342.47,2792.64 67.94,307.27 c 0,0 -107.19,120.14 -217.71,215.64 -110.52,95.51 -163.12,85.3 -96.96,-84.75 66.16,-170.06 163.52,-367.09 246.73,-438.16"
         style="fill:#fabb1e;fill-opacity:1;fill-rule:nonzero;stroke:none"
         id="path160" /><path
         d="m 1342.47,2792.64 67.94,307.27 c 0,0 -107.19,120.14 -217.71,215.64 -110.52,95.51 -163.12,85.3 -96.96,-84.75 66.16,-170.06 163.52,-367.09 246.73,-438.16"
         style="fill:#fabb1e;fill-opacity:1;fill-rule:nonzero;stroke:none"
         id="path162" /><path
         d="m 1371.99,3106.52 c -11.72,-41.99 -21.88,-84.13 -30.62,-126.84 -4.39,-21.43 -8.51,-42.92 -12.32,-64.46 -3.88,-21.97 -6.31,-44.14 -9.64,-66.18 -0.16,-1.09 1.49,-1.23 1.69,-0.17 7.93,43.06 17.48,85.96 26.21,128.88 8.7,42.81 17.47,85.6 26.15,128.41 l -1.47,0.36"
         style="fill:#17282f;fill-opacity:1;fill-rule:nonzero;stroke:none"
         id="path164" /><path
         d="m 1204.32,3266.67 c -6.12,-4.44 -10.89,-9.9 -15.33,-15.6 -4.29,-5.83 -8.24,-11.9 -10.83,-19.01 6.13,4.43 10.89,9.89 15.34,15.6 4.27,5.84 8.22,11.91 10.82,19.01 z m 41.54,-162.19 c -4.46,6.11 -9.94,10.86 -15.65,15.29 -5.84,4.27 -11.93,8.19 -19.04,10.77 4.45,-6.12 9.93,-10.87 15.65,-15.29 5.84,-4.25 11.93,-8.18 19.04,-10.77 z m 113.6,-161.51 c -6.1,-4.46 -10.85,-9.93 -15.29,-15.65 -4.26,-5.84 -8.19,-11.93 -10.76,-19.04 6.11,4.45 10.86,9.93 15.29,15.65 4.25,5.85 8.18,11.94 10.76,19.04 z m -186.11,109 0.33,-0.55 0.56,1.33 z m -100.07,285.25 c 7.47,-1.16 14.7,-0.65 21.87,0.25 7.15,1.12 14.23,2.64 21.08,5.86 -7.47,1.18 -14.7,0.66 -21.87,-0.26 -7.15,-1.12 -14.23,-2.65 -21.08,-5.85 z m 224.64,-287.55 c 7.47,-1.17 14.7,-0.65 21.88,0.25 7.14,1.12 14.23,2.65 21.07,5.86 -7.47,1.17 -14.7,0.66 -21.87,-0.26 -7.14,-1.13 -14.23,-2.65 -21.08,-5.85 z m -57.78,-68.33 c -1.16,-7.47 -0.65,-14.7 0.26,-21.87 1.12,-7.15 2.64,-14.23 5.86,-21.08 1.17,7.47 0.66,14.7 -0.26,21.87 -1.13,7.14 -2.66,14.23 -5.86,21.08 z m 61.83,219.99 c -1.17,-7.47 -0.65,-14.7 0.25,-21.87 1.12,-7.14 2.65,-14.23 5.86,-21.08 1.18,7.47 0.66,14.7 -0.26,21.88 -1.13,7.14 -2.65,14.22 -5.85,21.07 z m -182.77,-18.88 c 3.19,-6.95 4.63,-14 5.84,-21.17 0.11,-1.21 0.33,-2.43 0.33,-3.64 -2.2,5.51 -4.52,10.92 -6.84,16.43 0,2.76 0.11,5.52 0.67,8.38"
         style="fill:#ffffff;fill-opacity:1;fill-rule:nonzero;stroke:none"
         id="path166" /><path
         d="m 1095.75,3230.75 c 66.2,-169.98 163.51,-367.07 246.67,-438.1 l 28.04,126.52 -298.51,447.29 c -11.31,-17.9 -5.06,-61.61 23.8,-135.71"
         style="fill:#17282f;fill-opacity:1;fill-rule:nonzero;stroke:none"
         id="path168" /><path
         d="m 1286.84,2717.81 c 0,0 -212.35,-50.31 -614.668,-15.56 0,0 157.312,502.15 284.012,637.53 57.656,61.6 114.006,52.18 161.766,12.56 11.91,-9.9 159.63,-197.39 172.14,-262.73 11.06,-57.76 -35.88,-121.85 -35.88,-121.85 l 32.63,-249.95"
         style="fill:#fabb1e;fill-opacity:1;fill-rule:nonzero;stroke:none"
         id="path170" /><path
         d="m 874.305,2762.82 c -4.457,6.1 -9.934,10.85 -15.645,15.29 -5.844,4.26 -11.933,8.19 -19.047,10.76 4.453,-6.12 9.926,-10.86 15.649,-15.29 5.847,-4.25 11.937,-8.18 19.043,-10.76 z m 150.885,222.22 c -4.46,6.1 -9.93,10.86 -15.64,15.28 -5.85,4.27 -11.937,8.2 -19.046,10.77 4.449,-6.12 9.926,-10.87 15.646,-15.29 5.85,-4.25 11.94,-8.18 19.04,-10.76 z m 39.65,-276.69 c -4.46,6.1 -9.93,10.85 -15.64,15.29 -5.85,4.25 -11.94,8.19 -19.05,10.76 4.45,-6.12 9.93,-10.87 15.65,-15.29 5.85,-4.25 11.94,-8.18 19.04,-10.76 z m -133.402,450.03 c -4.458,6.11 -9.93,10.86 -15.645,15.29 -5.844,4.26 -11.934,8.19 -19.047,10.76 4.453,-6.11 9.926,-10.86 15.649,-15.28 5.847,-4.26 11.937,-8.19 19.043,-10.77 z M 1255.86,2844.5 c -4.46,6.11 -9.93,10.85 -15.65,15.29 -5.84,4.26 -11.93,8.19 -19.04,10.76 4.45,-6.11 9.93,-10.87 15.65,-15.28 5.85,-4.26 11.94,-8.19 19.04,-10.77 z m -469.723,7.93 c -4.461,6.11 -9.934,10.86 -15.649,15.29 -5.843,4.26 -11.925,8.19 -19.043,10.76 4.45,-6.11 9.922,-10.86 15.649,-15.28 5.851,-4.26 11.937,-8.19 19.043,-10.77 z m 459.723,252.05 c -4.46,6.11 -9.94,10.86 -15.65,15.29 -5.84,4.27 -11.93,8.19 -19.04,10.77 4.45,-6.12 9.93,-10.87 15.65,-15.29 5.84,-4.25 11.93,-8.18 19.04,-10.77 z m -52.52,151.97 c -1.52,-1.73 -2.93,-3.47 -4.34,-5.31 -4.33,-5.85 -8.24,-11.93 -10.84,-19.08 6.18,4.45 10.84,9.98 15.29,15.72 0.97,1.41 1.95,2.82 3.03,4.23 -1.08,1.51 -2.17,3.03 -3.14,4.44 z M 993.586,2850.51 c -6.102,-4.47 -10.856,-9.94 -15.289,-15.65 -4.258,-5.85 -8.192,-11.94 -10.762,-19.05 6.113,4.45 10.867,9.93 15.289,15.65 4.246,5.85 8.18,11.94 10.762,19.05 z m 180.654,202.22 c -6.1,-4.46 -10.85,-9.93 -15.29,-15.65 -4.26,-5.84 -8.19,-11.93 -10.76,-19.05 6.12,4.46 10.86,9.93 15.29,15.65 4.25,5.85 8.18,11.94 10.76,19.05 z m -361.392,-25.3 c -6.102,-4.46 -10.856,-9.93 -15.285,-15.65 -4.258,-5.84 -8.196,-11.92 -10.758,-19.04 6.113,4.45 10.863,9.93 15.281,15.65 4.25,5.85 8.184,11.94 10.762,19.04 z m 189.612,271.29 c -6.101,-4.45 -10.851,-9.93 -15.284,-15.65 -4.258,-5.84 -8.196,-11.93 -10.762,-19.04 6.117,4.45 10.863,9.93 15.285,15.65 4.25,5.85 8.188,11.94 10.761,19.04 z m 70.82,38.5 c 7.47,-1.16 14.7,-0.65 21.87,0.25 7.15,1.12 14.23,2.64 21.08,5.86 -7.47,1.18 -14.7,0.66 -21.87,-0.26 -7.15,-1.12 -14.23,-2.65 -21.08,-5.85 z M 696.434,2723.53 c 7.464,-1.16 14.695,-0.65 21.871,0.26 7.14,1.11 14.23,2.64 21.078,5.85 -7.473,1.18 -14.703,0.66 -21.875,-0.25 -7.145,-1.14 -14.231,-2.66 -21.074,-5.86 z m 378.246,195.3 c 7.48,-1.16 14.71,-0.65 21.88,0.25 7.14,1.12 14.23,2.65 21.07,5.86 -7.47,1.18 -14.69,0.66 -21.87,-0.26 -7.14,-1.13 -14.22,-2.65 -21.08,-5.85 z m -208.485,-17.48 c 7.465,-1.16 14.696,-0.64 21.868,0.26 7.144,1.12 14.23,2.64 21.074,5.86 -7.469,1.17 -14.696,0.66 -21.867,-0.26 -7.145,-1.13 -14.231,-2.66 -21.075,-5.86 z m 125.168,212.55 c 7.465,-1.16 14.697,-0.65 21.867,0.26 7.15,1.12 14.24,2.64 21.08,5.86 -7.47,1.18 -14.7,0.66 -21.87,-0.26 -7.14,-1.13 -14.229,-2.66 -21.077,-5.86 z m 248.777,-132.56 c -1.16,-7.47 -0.65,-14.7 0.26,-21.87 1.12,-7.15 2.64,-14.23 5.86,-21.08 1.17,7.47 0.66,14.7 -0.26,21.87 -1.13,7.14 -2.66,14.23 -5.86,21.08 z m -344.89,73.25 c -1.16,-7.47 -0.648,-14.7 0.262,-21.87 1.109,-7.15 2.636,-14.23 5.851,-21.08 1.176,7.47 0.664,14.71 -0.258,21.87 -1.128,7.15 -2.652,14.23 -5.855,21.08 z m 337.76,-297.46 c -1.16,-7.47 -0.65,-14.7 0.26,-21.87 1.12,-7.15 2.64,-14.24 5.85,-21.08 1.18,7.47 0.67,14.7 -0.25,21.87 -1.13,7.15 -2.66,14.23 -5.86,21.08 z m -104.2,65.03 c -1.17,-7.48 -0.66,-14.71 0.25,-21.88 1.12,-7.14 2.64,-14.23 5.86,-21.08 1.18,7.47 0.66,14.7 -0.26,21.88 -1.13,7.14 -2.66,14.23 -5.85,21.08 z m -3.8,339.17 c 0.92,-7.17 1.43,-14.4 0.26,-21.87 -3.22,6.84 -4.74,13.93 -5.86,21.08 -0.91,7.17 -1.42,14.4 -0.25,21.87 3.2,-6.85 4.72,-13.94 5.85,-21.08"
         style="fill:#ffffff;fill-opacity:1;fill-rule:nonzero;stroke:none"
         id="path172" /><path
         d="m 1213.08,3227.83 c 13.03,-17.43 24.74,-35.53 35.87,-54.12 -4.53,10.52 -8.79,21.13 -12.52,32.02 l 0.76,0.31 c 3.87,-7.71 7.82,-15.39 11.06,-23.39 2.9,-7.17 5.74,-14.35 8.41,-21.6 l 0.23,-0.39 c 12.49,-21.95 27.09,-44.12 33.34,-68.86 5.58,-22.08 4.57,-45.75 -1.41,-67.63 -3.11,-11.4 -7.71,-22.32 -13.15,-32.8 -4.7,-9.04 -9.95,-18.56 -17.29,-25.83 4.07,-23.15 6.73,-46.66 9.77,-69.96 2.95,-22.58 7.02,-45.74 7.13,-68.55 0.01,-1.46 -2.08,-1.6 -2.47,-0.27 -0.46,1.64 -0.96,3.26 -1.49,4.88 l 0.22,0.77 c -4.98,21.02 -7.14,43.01 -10.03,64.32 -3,22.13 -8.6,68.33 -8.63,68.59 -0.09,1.06 10.55,19.36 14.71,28.16 5.07,10.71 9.13,21.98 12.2,33.42 5.86,21.75 7.41,44.46 1.34,66.36 -6.46,23.33 -19.47,45.67 -31.21,66.7 -12.5,22.4 -25.39,44.63 -38.31,66.79 l 1.47,1.08"
         style="fill:#17282f;fill-opacity:1;fill-rule:nonzero;stroke:none"
         id="path174" /><path
         d="M 922.664,3305.46 C 817.609,3163.34 617.07,2826.94 684.383,2752.84 c 110.664,-121.81 376.827,-224.85 459.697,-247.45 35.78,-9.75 155.54,251.96 121.54,272.33 -40.8,24.45 -325.866,111.66 -325.077,135.92 0.445,13.75 30.105,129.11 54.562,277.16 28.365,171.72 -22.367,182.41 -72.441,114.66"
         style="fill:#f25553;fill-opacity:1;fill-rule:nonzero;stroke:none"
         id="path176" /><path
         d="m 1159.03,2800.68 c 0,0 64.24,20.85 131.5,51.31 37.51,17 104.44,40.39 137.71,40.28 49.78,-0.19 257.83,-32.74 251.02,-83.35 -6.16,-45.81 -181.35,4.85 -181.35,4.85 0,0 181.3,-35.5 163.74,-89.29 -17.56,-53.81 -207.89,29.75 -207.89,29.75 0,0 185.46,-40.64 158.58,-93.26 -20.32,-39.76 -196.97,26.21 -196.97,26.21 0,0 159.16,-36.04 140.03,-77.83 -21.14,-46.19 -188.01,4.48 -188.01,4.48 -66.52,-98.05 -169.43,-136.22 -242.02,-102.93 -11.73,5.38 33.66,289.78 33.66,289.78"
         style="fill:#f25553;fill-opacity:1;fill-rule:nonzero;stroke:none"
         id="path178" /><path
         d="m 1435.99,2830.06 c 21.45,-3.4 43.18,-6.69 64.26,-11.99 21.07,-5.29 41.97,-11.32 62.46,-18.55 50.24,-17.74 78.92,-36.7 77.02,-35.72 -44.92,23.14 -120.06,43.25 -141.14,48.55 -21.02,5.27 -41.79,11.62 -62.83,16.91 l 0.23,0.8"
         style="fill:#17282f;fill-opacity:1;fill-rule:nonzero;stroke:none"
         id="path180" /><path
         d="m 1415.5,2754.32 c 27.2,-5.52 54.4,-10.01 81.36,-16.74 26.83,-6.69 51.7,-15.4 78,-23.92 2.03,-0.65 1.01,-1.53 -1.05,-0.95 -26.62,7.47 -51.81,12.32 -78.51,19.47 -26.61,7.13 -53.14,15.35 -79.98,21.5 l 0.18,0.64"
         style="fill:#17282f;fill-opacity:1;fill-rule:nonzero;stroke:none"
         id="path182" /><path
         d="m 1386.22,2692.48 c 42,-6.32 82.78,-20.37 122.45,-35.11 1.98,-0.74 0.54,-1.72 -1.52,-1.09 -40.49,12.44 -72.16,22.49 -121.15,34.74 l 0.22,1.46"
         style="fill:#17282f;fill-opacity:1;fill-rule:nonzero;stroke:none"
         id="path184" /><path
         d="m 1330.37,2868.77 c 10.33,6.73 22.28,11.47 33.56,16.16 10.77,4.49 21.84,8.19 33.12,11.06 24.64,6.26 49.64,7.16 74.8,3.04 82.55,-13.53 125.87,-32.96 172.89,-51.78 0.95,-0.38 0.57,-2.13 -0.46,-1.85 -46.86,12.61 -97.92,32.61 -169.39,43.37 -24.89,3.75 -49.31,4.66 -73.92,-0.66 -12.55,-2.72 -24.81,-6.64 -37.03,-10.61 -10.85,-3.52 -21.59,-8.35 -32.72,-10.8 -1.03,-0.23 -1.76,1.47 -0.85,2.07"
         style="fill:#17282f;fill-opacity:1;fill-rule:nonzero;stroke:none"
         id="path186" /><path
         d="m 658.352,2801.08 291.519,118.52 c 0,0 38.035,156.45 53.909,301.65 15.88,145.2 -22.389,182.7 -124.819,31.7 C 776.535,3101.94 669.605,2909.92 658.352,2801.08"
         style="fill:#fabb1e;fill-opacity:1;fill-rule:nonzero;stroke:none"
         id="path188" /><path
         d="m 931.438,3158.38 c -4.458,6.11 -9.93,10.86 -15.645,15.29 -5.844,4.26 -11.934,8.19 -19.047,10.76 4.453,-6.11 9.926,-10.86 15.649,-15.28 5.847,-4.26 11.937,-8.19 19.043,-10.77 z M 786.137,2852.43 c -4.461,6.11 -9.934,10.86 -15.649,15.29 -5.843,4.26 -11.925,8.19 -19.043,10.76 4.45,-6.11 9.922,-10.86 15.649,-15.28 5.851,-4.26 11.937,-8.19 19.043,-10.77 z m 26.711,175 c -6.102,-4.46 -10.856,-9.93 -15.285,-15.65 -4.258,-5.84 -8.196,-11.92 -10.758,-19.04 6.113,4.45 10.863,9.93 15.281,15.65 4.25,5.85 8.184,11.94 10.762,19.04 z m 189.612,271.29 c -6.101,-4.45 -10.851,-9.93 -15.284,-15.65 -4.258,-5.84 -8.196,-11.93 -10.762,-19.04 6.117,4.45 10.863,9.93 15.285,15.65 4.25,5.85 8.188,11.94 10.761,19.04 z m -199.046,-163.9 c -1.191,-1.95 -2.387,-4.01 -3.578,-5.96 1.086,0.11 2.168,0.22 3.254,0.33 7.152,1.08 14.195,2.6 21.027,5.85 -7.047,1.09 -13.875,0.76 -20.703,-0.22 z m 62.781,-233.47 c 7.465,-1.16 14.696,-0.64 21.868,0.26 7.144,1.12 14.23,2.64 21.074,5.86 -7.469,1.17 -14.696,0.66 -21.867,-0.26 -7.145,-1.13 -14.231,-2.66 -21.075,-5.86 z m 29.055,153.24 c -1.16,-7.47 -0.648,-14.7 0.262,-21.87 1.109,-7.15 2.636,-14.23 5.851,-21.08 1.176,7.47 0.664,14.71 -0.258,21.87 -1.128,7.15 -2.652,14.23 -5.855,21.08 z m -1.754,204.57 c -1.516,3.25 -2.601,6.5 -3.469,9.76 1.301,1.84 2.602,3.69 3.903,5.42 0.433,-4.99 0.433,-10.09 -0.434,-15.18"
         style="fill:#ffffff;fill-opacity:1;fill-rule:nonzero;stroke:none"
         id="path190" /><path
         d="m 1000.97,3131.27 c -4.556,-8.12 -7.54,-17.43 -10.544,-26.2 -1.035,-3.03 -2.02,-6.06 -3.008,-9.1 2.508,16.85 4.93,33.71 7.246,50.61 0.152,1.11 -1.508,1.57 -1.726,0.43 -7.383,-38.13 -41.293,-216.89 -42.829,-226.16 l -10.414,-5.21 0.633,-1.43 11.731,5.34 c 3.711,8.15 30.449,144.56 33.007,161.14 l 1.059,2.23 c 0.883,2.37 1.758,4.73 2.641,7.09 1.644,4.37 3.121,8.79 4.648,13.2 3.125,9.02 6.756,18.28 8.496,27.68 l -0.94,0.38"
         style="fill:#17282f;fill-opacity:1;fill-rule:nonzero;stroke:none"
         id="path192" /><path
         d="m 944.48,2952.42 c -11.507,-2.09 -22.968,-6.68 -34.132,-10.16 -11.332,-3.53 -22.715,-6.87 -33.989,-10.57 -21.734,-7.14 -43.242,-14.83 -64.683,-22.8 -42.996,-15.98 -85.86,-32.75 -127.035,-53.02 l 0.687,-1.53 c 43.961,15.33 87.164,32.74 130.77,49.04 21.433,8.01 42.91,15.9 64.347,23.89 10.735,4 21.375,8.24 32.129,12.19 10.676,3.9 22.145,6.98 32.356,11.97 l -0.45,0.99"
         style="fill:#17282f;fill-opacity:1;fill-rule:nonzero;stroke:none"
         id="path194" /><path
         d="m 1008.31,3355.89 c 2.41,-10.86 53.32,-81.74 102.84,-79.98 16.13,0.61 16.77,88.79 16.77,88.79 l 1.54,6.5 21.42,91 -106.38,69.94 -15.38,9.28 c 0,0 -4.22,-25.28 -9.16,-56.81 -0.24,-1.46 -0.48,-2.93 -0.7,-4.49 -0.33,-1.78 -0.66,-3.45 -0.89,-5.12 -0.79,-4.7 -1.59,-9.5 -2.28,-14.31 -0.54,-3.65 -1.09,-7.2 -1.52,-11.05 -0.53,-3.86 -0.96,-7.62 -1.49,-11.48 -4.4,-38.13 -5.72,-77.66 -4.77,-82.27"
         style="fill:#f25553;fill-opacity:1;fill-rule:nonzero;stroke:none"
         id="path196" /><path
         d="m 1019.96,3484.61 c 25.32,-72.9 82.98,-103.14 109.5,-113.41 l 21.42,91 -106.38,69.94 -15.38,9.28 c 0,0 -4.22,-25.28 -9.16,-56.81"
         style="fill:#17282f;fill-opacity:1;fill-rule:nonzero;stroke:none"
         id="path198" /><path
         d="m 1282.31,3606.11 c 21.1,-162.7 -73.97,-193.7 -109.06,-198.22 -31.85,-4.09 -140.83,-13.98 -178.617,145.66 -37.793,159.65 31.177,220.89 103.537,234.1 72.35,13.23 163.04,-18.85 184.14,-181.54"
         style="fill:#f25553;fill-opacity:1;fill-rule:nonzero;stroke:none"
         id="path200" /><path
         d="m 1255.72,3631.22 c -3.88,0.03 -7.45,0.71 -11.27,1.14 -4.33,0.48 -7.82,0.43 -11.28,3.35 -1.86,1.58 -2.11,5.15 -0.75,7.09 3.16,4.54 8.6,5.26 13.82,4.89 5.67,-0.41 9.94,-2.17 14.07,-6.06 4.01,-3.76 0.52,-10.45 -4.59,-10.41"
         style="fill:#17282f;fill-opacity:1;fill-rule:nonzero;stroke:none"
         id="path202" /><path
         d="m 1143.82,3619.57 c 3.78,0.86 7.12,2.27 10.78,3.51 4.12,1.39 7.54,2.07 10.3,5.67 1.48,1.93 0.97,5.47 -0.77,7.08 -4.05,3.77 -9.52,3.32 -14.54,1.84 -5.46,-1.6 -9.26,-4.22 -12.47,-8.89 -3.11,-4.53 1.72,-10.33 6.7,-9.21"
         style="fill:#17282f;fill-opacity:1;fill-rule:nonzero;stroke:none"
         id="path204" /><path
         d="m 1173.97,3582.31 -0.73,-1.1 c 1.81,-11.02 2.02,-23.96 -7.52,-28.95 l 0.17,-0.61 c 12,3.33 11.55,20.49 8.08,30.66"
         style="fill:#17282f;fill-opacity:1;fill-rule:nonzero;stroke:none"
         id="path206" /><path
         d="m 1162.56,3592.58 c -17.99,-0.98 -14.71,-36.89 1.96,-35.99 16.4,0.9 13.12,36.81 -1.96,35.99"
         style="fill:#17282f;fill-opacity:1;fill-rule:nonzero;stroke:none"
         id="path208" /><path
         d="m 1155.69,3590.04 c -2.96,-2.32 -5.7,-6.19 -9.45,-6.91 -4.33,-0.83 -7.98,2.62 -11.17,5.98 l -0.58,-0.47 c 0.53,-6.89 3.82,-13.71 11.29,-14.06 6.81,-0.32 11.09,6.21 12.18,13.29 0.2,1.31 -1.09,3.1 -2.27,2.17"
         style="fill:#17282f;fill-opacity:1;fill-rule:nonzero;stroke:none"
         id="path210" /><path
         d="m 1235.58,3590.3 0.95,-0.91 c 0.57,-11.16 3.12,-23.84 13.49,-26.69 l -0.04,-0.63 c -12.43,0.7 -15.64,17.57 -14.4,28.23"
         style="fill:#17282f;fill-opacity:1;fill-rule:nonzero;stroke:none"
         id="path212" /><path
         d="m 1244.55,3602.76 c 17.8,2.86 22.2,-32.93 5.72,-35.58 -16.22,-2.6 -20.63,33.19 -5.72,35.58"
         style="fill:#17282f;fill-opacity:1;fill-rule:nonzero;stroke:none"
         id="path214" /><path
         d="m 1252.31,3601.33 c 3.06,-1.55 6.28,-4.65 9.69,-4.46 3.94,0.23 6.36,4.45 8.41,8.47 l 0.6,-0.32 c 1.03,-6.82 -0.36,-14.22 -6.76,-16.34 -5.85,-1.94 -10.98,3.39 -13.45,10 -0.46,1.23 0.28,3.27 1.51,2.65"
         style="fill:#17282f;fill-opacity:1;fill-rule:nonzero;stroke:none"
         id="path216" /><path
         d="m 1181.04,3490.88 c 2.79,-2.49 5.62,-5.97 9.69,-6.12 3.9,-0.15 8.36,1.81 11.86,3.35 l 0.52,-0.54 c -2.71,-4.42 -8.68,-7.38 -13.89,-6.71 -5.09,0.65 -7.79,4.9 -9.23,9.46 l 1.05,0.56"
         style="fill:#17282f;fill-opacity:1;fill-rule:nonzero;stroke:none"
         id="path218" /><path
         d="m 1223.35,3535.84 c 0,0 4,-16.36 4.81,-24.19 0.07,-0.73 -1.78,-1.27 -4.42,-1.7 l -0.31,-0.04 c -13.6,-3.59 -28.01,-0.25 -37.57,10.16 l 1.05,1.21 c 11.1,-6.52 22.71,-7.29 34.98,-6.23 0.33,2.23 -7.8,27.78 -6.57,28.01 4.25,0.81 12.98,-1.23 18.2,-2.19 -7.37,34.32 -20.17,67.17 -26.98,101.45 -0.22,1.23 1.51,1.79 1.99,0.72 15.86,-33.49 25.19,-72.79 33.7,-108.03 1.11,-4.39 -15.62,-0.18 -18.88,0.83"
         style="fill:#17282f;fill-opacity:1;fill-rule:nonzero;stroke:none"
         id="path220" /><path
         d="m 1010.12,3549.35 c 26.41,0.93 26.23,56.5 26.23,56.5 0,0 53.22,5.84 62.15,84.33 0,0 2.86,-35.74 -16.42,-65.92 0,0 92.68,20.52 123.33,103.48 0,0 -11.24,-41.77 -24.42,-57.65 0,0 38.11,15.41 53.7,49.52 0,0 21.53,-43.45 35.59,-54.55 0,0 -22.38,163.71 -172.48,129.11 0,0 -94.5,-17.06 -120.191,-96.28 -25.695,-79.22 32.511,-148.54 32.511,-148.54"
         style="fill:#17282f;fill-opacity:1;fill-rule:nonzero;stroke:none"
         id="path222" /><path
         d="m 1149.46,3614.11 c -3.59,-0.04 -7.24,-0.51 -10.87,-1.46 -23.53,-6.2 -37.63,-30.39 -31.44,-53.92 6.21,-23.52 30.4,-37.65 53.92,-31.43 23.53,6.2 37.62,30.38 31.44,53.92 -5.25,19.89 -23.35,33.05 -43.05,32.89 z m 0.79,-95.08 c -22.73,-0.19 -43.63,15 -49.68,37.96 -7.15,27.17 9.12,55.09 36.28,62.24 27.17,7.16 55.08,-9.12 62.24,-36.28 v 0 c 7.15,-27.16 -9.13,-55.08 -36.29,-62.24 -4.19,-1.1 -8.4,-1.65 -12.55,-1.68"
         style="fill:#fabb1e;fill-opacity:1;fill-rule:nonzero;stroke:none"
         id="path224" /><path
         d="m 1260.2,3628.95 -2.58,-0.17 c -8.03,-1.01 -15.11,-6.39 -19.92,-15.12 -5,-9.1 -6.94,-20.66 -5.45,-32.55 3.05,-24.14 19.31,-42.06 36.39,-39.9 17.02,2.14 28.39,23.53 25.37,47.67 -1.5,11.89 -6.24,22.61 -13.34,30.19 -6.1,6.49 -13.27,9.94 -20.47,9.88 z m 5.96,-94.72 c -19.49,-0.16 -37.33,19.66 -40.65,46.03 -1.68,13.31 0.53,26.33 6.23,36.68 5.88,10.7 14.78,17.31 25.03,18.6 10.3,1.31 20.51,-2.91 28.87,-11.82 8.08,-8.61 13.45,-20.68 15.12,-33.99 3.5,-27.87 -10.52,-52.66 -31.27,-55.28 -1.11,-0.13 -2.22,-0.21 -3.33,-0.22"
         style="fill:#fabb1e;fill-opacity:1;fill-rule:nonzero;stroke:none"
         id="path226" /><path
         d="m 1198.13,3576.89 -5,4.63 c 6.86,7.39 23.5,18.28 37.5,6.63 l -4.36,-5.23 c -12.53,10.46 -27.51,-5.37 -28.14,-6.03"
         style="fill:#fabb1e;fill-opacity:1;fill-rule:nonzero;stroke:none"
         id="path228" /><path
         d="m 984.785,3534.95 -6.394,2.35 c 1.101,2.98 11.129,29.25 25.909,33.6 13.82,4.03 95.25,7.53 99.14,7.65 l 0.2,-6.81 c -26.27,-0.81 -86.75,-4.23 -97.42,-7.38 -9.759,-2.86 -18.775,-22.2 -21.435,-29.41"
         style="fill:#fabb1e;fill-opacity:1;fill-rule:nonzero;stroke:none"
         id="path230" /><path
         d="m 1002.11,3493.53 c 2.76,-0.9 5.28,-1.42 7.67,-1.63 2.82,-0.39 5.4,-0.28 7.74,0.12 3.67,0.51 6.77,1.8 9.32,3.46 2.36,1.43 4.38,3.25 5.98,5.04 4.16,4.68 5.83,9.47 5.83,9.47 l -10.92,43.4 c 0,0 -37.996,49.63 -60.613,35.88 -22.719,-13.75 7.289,-86.77 34.993,-95.74"
         style="fill:#f25553;fill-opacity:1;fill-rule:nonzero;stroke:none"
         id="path232" /><path
         d="m 976.203,3568.59 -0.113,-0.73 c 19.433,-6.94 30.25,-24.23 38.08,-42.31 -5.99,6.83 -13.89,10.38 -23.08,3.21 l 0.562,-1 c 7.758,2.01 13.458,0.9 19.018,-5.15 3.93,-4.28 6.73,-9.79 9.63,-14.79 0.97,-1.68 4.01,-0.63 3.28,1.31 l -0.17,0.43 c -0.56,24.39 -20.94,57.68 -47.207,59.03"
         style="fill:#17282f;fill-opacity:1;fill-rule:nonzero;stroke:none"
         id="path234" /><path
         d="m 1004.09,3500.53 c 1.01,-4.08 5.13,-6.57 9.2,-5.56 4.08,1 6.57,5.12 5.56,9.19 -1,4.07 -5.12,6.57 -9.19,5.56 -4.08,-1 -6.57,-5.12 -5.57,-9.19"
         style="fill:#ffffff;fill-opacity:1;fill-rule:nonzero;stroke:none"
         id="path236" /><path
         d="m 988,3511.32 c 0.715,-2.87 3.621,-4.63 6.504,-3.93 2.883,0.72 4.644,3.62 3.93,6.51 -0.707,2.88 -3.618,4.64 -6.496,3.93 -2.883,-0.71 -4.645,-3.62 -3.938,-6.51"
         style="fill:#ffffff;fill-opacity:1;fill-rule:nonzero;stroke:none"
         id="path238" /><path
         d="m 1128.16,3357.69 -24.48,-74.44 -96.07,86.02 -23.657,-31.11 c 0,0 97.587,-140.2 97.717,-133.57 l 25.88,64.47 45.97,-40.74 -10.53,109.02 -14.83,20.35"
         style="fill:#e7e8e5;fill-opacity:1;fill-rule:nonzero;stroke:none"
         id="path240" /><path
         d="m 1151.36,3282.5 c -2.34,17.95 -4.19,36.08 -7.37,53.89 l -1.23,0.1 c -2.49,-17.63 6.83,-86.2 7.81,-102.72 l -0.2,0.18 c -1.92,1.76 -42.48,35.71 -42.82,35.11 -5.84,-10.35 -24.86,-57.31 -26.1,-61.55 -15.44,22.28 -74.31,103.07 -92.235,123.92 l -1.039,-0.7 c 13.894,-23.67 91.934,-132.55 93.004,-132.16 0.78,-0.53 24.44,57.32 27.02,68.14 6.97,-7.52 48.19,-46.13 48.14,-43.44 -0.27,18.14 -2.63,41.27 -4.98,59.23"
         style="fill:#17282f;fill-opacity:1;fill-rule:nonzero;stroke:none"
         id="path242" /><path
         d="M 1860.95,1709 H 3017.58 V 3193.76 H 1860.95 Z"
         style="fill:#e7e8e5;fill-opacity:1;fill-rule:nonzero;stroke:none"
         id="path244" /><path
         d="m 3017.58,1709 -2.49,743.41 -1.27,741.35 3.76,-3.77 -1156.63,-1.13 4.9,4.9 -1.75,-1484.76 -3.15,3.15 577.48,-1.12 579.15,-2.03 m 0,0 -577.47,-2.03 -579.16,-1.13 h -3.15 l -0.01,3.16 -1.74,1484.76 -0.01,4.9 h 4.91 l 1156.63,-1.13 3.77,-0.01 -0.01,-3.76 -1.26,-743.42 -2.5,-741.34"
         style="fill:#d4d6d3;fill-opacity:1;fill-rule:nonzero;stroke:none"
         id="path246" /><path
         d="m 1987.47,2876.43 451.79,1.14 451.8,-1.14 -451.8,-1.14 -451.79,1.14"
         style="fill:#bebfbd;fill-opacity:1;fill-rule:nonzero;stroke:none"
         id="path248" /><path
         d="m 1987.47,2839.58 451.79,1.14 451.8,-1.14 -451.8,-1.14 -451.79,1.14"
         style="fill:#bebfbd;fill-opacity:1;fill-rule:nonzero;stroke:none"
         id="path250" /><path
         d="m 1987.47,2802.74 451.79,1.14 451.8,-1.14 -451.8,-1.15 -451.79,1.15"
         style="fill:#bebfbd;fill-opacity:1;fill-rule:nonzero;stroke:none"
         id="path252" /><path
         d="m 1987.47,2765.89 451.79,1.14 451.8,-1.14 -451.8,-1.14 -451.79,1.14"
         style="fill:#bebfbd;fill-opacity:1;fill-rule:nonzero;stroke:none"
         id="path254" /><path
         d="m 1987.47,2729.05 451.79,1.13 451.8,-1.13 -451.8,-1.15 -451.79,1.15"
         style="fill:#bebfbd;fill-opacity:1;fill-rule:nonzero;stroke:none"
         id="path256" /><path
         d="m 1987.47,2692.19 451.79,1.15 451.8,-1.15 -451.8,-1.14 -451.79,1.14"
         style="fill:#bebfbd;fill-opacity:1;fill-rule:nonzero;stroke:none"
         id="path258" /><path
         d="m 1987.47,2655.35 451.79,1.14 451.8,-1.14 -451.8,-1.14 -451.79,1.14"
         style="fill:#bebfbd;fill-opacity:1;fill-rule:nonzero;stroke:none"
         id="path260" /><path
         d="m 1987.47,2618.5 451.79,1.15 451.8,-1.15 -451.8,-1.14 -451.79,1.14"
         style="fill:#bebfbd;fill-opacity:1;fill-rule:nonzero;stroke:none"
         id="path262" /><path
         d="m 1987.47,2581.66 451.79,1.14 451.8,-1.14 -451.8,-1.15 -451.79,1.15"
         style="fill:#bebfbd;fill-opacity:1;fill-rule:nonzero;stroke:none"
         id="path264" /><path
         d="m 1987.47,2544.81 451.79,1.14 451.8,-1.14 -451.8,-1.14 -451.79,1.14"
         style="fill:#bebfbd;fill-opacity:1;fill-rule:nonzero;stroke:none"
         id="path266" /><path
         d="m 1987.47,2507.96 451.79,1.14 451.8,-1.14 -451.8,-1.14 -451.79,1.14"
         style="fill:#bebfbd;fill-opacity:1;fill-rule:nonzero;stroke:none"
         id="path268" /><path
         d="m 1987.47,2471.12 451.79,1.14 451.8,-1.14 -451.8,-1.15 -451.79,1.15"
         style="fill:#bebfbd;fill-opacity:1;fill-rule:nonzero;stroke:none"
         id="path270" /><path
         d="m 1987.47,2434.27 451.79,1.14 451.8,-1.14 -451.8,-1.14 -451.79,1.14"
         style="fill:#bebfbd;fill-opacity:1;fill-rule:nonzero;stroke:none"
         id="path272" /><path
         d="m 1987.47,2397.42 451.79,1.14 451.8,-1.14 -451.8,-1.14 -451.79,1.14"
         style="fill:#bebfbd;fill-opacity:1;fill-rule:nonzero;stroke:none"
         id="path274" /><path
         d="m 1987.47,2360.57 451.79,1.15 451.8,-1.15 -451.8,-1.14 -451.79,1.14"
         style="fill:#bebfbd;fill-opacity:1;fill-rule:nonzero;stroke:none"
         id="path276" /><path
         d="m 2083.02,2317.62 h 68.5195 v 154.641 H 2083.02 Z"
         style="fill:#fabb1e;fill-opacity:1;fill-rule:nonzero;stroke:none"
         id="path278" /><path
         d="m 2210.13,2317.62 h 68.5195 v 237.117 H 2210.13 Z"
         style="fill:#fabb1e;fill-opacity:1;fill-rule:nonzero;stroke:none"
         id="path280" /><path
         d="m 2337.25,2317.62 h 68.5195 v 329.449 H 2337.25 Z"
         style="fill:#fabb1e;fill-opacity:1;fill-rule:nonzero;stroke:none"
         id="path282" /><path
         d="m 2464.36,2317.62 h 68.5195 v 369.117 H 2464.36 Z"
         style="fill:#fabb1e;fill-opacity:1;fill-rule:nonzero;stroke:none"
         id="path284" /><path
         d="m 2591.48,2317.62 h 68.5195 v 439.801 H 2591.48 Z"
         style="fill:#fabb1e;fill-opacity:1;fill-rule:nonzero;stroke:none"
         id="path286" /><path
         d="m 2787.12,2827.26 h -68.53 v -509.64 h 68.53 v 509.64"
         style="fill:#fabb1e;fill-opacity:1;fill-rule:nonzero;stroke:none"
         id="path288" /><path
         d="m 2011.99,2902.29 1.78,-146.17 1.22,-146.17 c 0.84,-97.44 1.09,-194.88 1.24,-292.33 l -4.24,4.24 219.77,0.18 219.76,-0.51 219.78,-1.4 219.76,-2.51 -219.76,-2.52 -219.78,-1.4 -219.76,-0.5 -219.77,0.18 h -4.25 l 0.01,4.24 c 0.15,97.45 0.4,194.89 1.24,292.33 l 1.22,146.17 1.78,146.17"
         style="fill:#bebfbd;fill-opacity:1;fill-rule:nonzero;stroke:none"
         id="path290" /><path
         d="m 2083.02,2280.53 h 68.5195 v 6.1992 H 2083.02 Z"
         style="fill:#bebfbd;fill-opacity:1;fill-rule:nonzero;stroke:none"
         id="path292" /><path
         d="m 2210.13,2280.53 h 68.5195 v 6.1992 H 2210.13 Z"
         style="fill:#bebfbd;fill-opacity:1;fill-rule:nonzero;stroke:none"
         id="path294" /><path
         d="m 2337.25,2280.53 h 68.5195 v 6.1992 H 2337.25 Z"
         style="fill:#bebfbd;fill-opacity:1;fill-rule:nonzero;stroke:none"
         id="path296" /><path
         d="m 2464.36,2280.53 h 68.5195 v 6.1992 H 2464.36 Z"
         style="fill:#bebfbd;fill-opacity:1;fill-rule:nonzero;stroke:none"
         id="path298" /><path
         d="m 2591.48,2280.53 h 68.5195 v 6.1992 H 2591.48 Z"
         style="fill:#bebfbd;fill-opacity:1;fill-rule:nonzero;stroke:none"
         id="path300" /><path
         d="m 2787.12,2280.53 h -68.53 v 6.2 h 68.53 v -6.2"
         style="fill:#bebfbd;fill-opacity:1;fill-rule:nonzero;stroke:none"
         id="path302" /><path
         d="m 2090.74,2452.75 c 33.52,0.45 66.94,3.12 100.08,7.59 33.17,4.28 66.11,10.12 98.61,17.77 64.91,15.39 128.74,36.26 188.25,66.31 59.9,29.06 115.76,66.6 164.51,112.01 l 9.26,8.4 8.78,8.89 17.47,17.89 c 10.8,12.68 22.38,24.76 32.2,38.28 21.23,25.84 38.84,54.36 56.11,83.07 l 0.54,-0.29 c -30.45,-59.7 -70.14,-115.33 -119.05,-161.85 -23.91,-23.84 -50.77,-44.52 -78.34,-63.89 -27.6,-19.43 -56.99,-36.22 -87.19,-51.23 -60.61,-29.67 -125.11,-50.97 -190.94,-64.83 -65.87,-13.53 -133.21,-20.94 -200.29,-18.12"
         style="fill:#17282f;fill-opacity:1;fill-rule:nonzero;stroke:none"
         id="path304" /><path
         d="m 2785.42,2765.27 -9.5,-2.38 -11.65,46.78 -45.8,-15.04 -3.04,9.29 55.78,18.31 14.21,-56.96"
         style="fill:#17282f;fill-opacity:1;fill-rule:nonzero;stroke:none"
         id="path306" /><path
         d="m 1968.16,2049.61 h 942.211 v 38.1289 H 1968.16 Z"
         style="fill:#d4d6d3;fill-opacity:1;fill-rule:nonzero;stroke:none"
         id="path308" /><path
         d="m 1968.16,1953.38 h 530.469 v 38.1328 H 1968.16 Z"
         style="fill:#d4d6d3;fill-opacity:1;fill-rule:nonzero;stroke:none"
         id="path310" /><path
         d="m 2174.03,3029.69 h 530.47 v -38.13 h -530.47 v 38.13"
         style="fill:#d4d6d3;fill-opacity:1;fill-rule:nonzero;stroke:none"
         id="path312" /><path
         d="m 2798.93,1346.99 -1132.97,-232.81 -298.85,1454.37 841.22,172.86 348.68,-217.17 241.92,-1177.25"
         style="fill:#fabb1e;fill-opacity:1;fill-rule:nonzero;stroke:none"
         id="path314" /><path
         d="m 1665.96,1114.18 -252.33,1227.99 -46.52,226.38 841.22,172.86 348.68,-217.17 65.24,-317.47 h -154.3 l 48.55,9.98 -7.67,37.35 -230.3,-47.33 h -109.17 v -22.43 l -583.47,-119.89 7.68,-37.35 575.79,118.32 v -59.32 l -564.1,-115.91 7.68,-37.36 556.42,114.34 v -8.77 -50.54 l -544.73,-111.94 7.68,-37.34 537.05,110.35 v -59.31 L 1644,1781.66 l 7.68,-37.35 517.68,106.38 v -59.32 l -505.99,-103.98 7.68,-37.34 498.31,102.4 v -59.32 l -486.62,-99.99 7.68,-37.36 478.94,98.42 v -59.31 l -467.25,-96.02 7.68,-37.34 459.57,94.43 v -59.32 l -447.88,-92.03 7.68,-37.35 440.2,90.46 v -59.32 l -428.51,-88.06 7.67,-37.34 420.84,86.48 v -141.86 l -503.4,-103.44"
         style="fill:#fef1c3;fill-opacity:1;fill-rule:nonzero;stroke:none"
         id="path316" /><path
         d="m 2208.33,2741.41 348.68,-217.17 -291.73,-59.95 z"
         style="fill:#fabb1e;fill-opacity:1;fill-rule:nonzero;stroke:none"
         id="path318" /><path
         d="m 1527.78,2347.23 629.92,129.44 7.67,-37.34 -629.91,-129.44 -7.68,37.34"
         style="fill:#d4d6d3;fill-opacity:1;fill-rule:nonzero;stroke:none"
         id="path320" /><path
         d="m 1547.15,2252.97 629.92,129.44 7.67,-37.34 -629.91,-129.44 -7.68,37.34"
         style="fill:#d4d6d3;fill-opacity:1;fill-rule:nonzero;stroke:none"
         id="path322" /><path
         d="m 1566.52,2158.71 629.92,129.44 7.67,-37.35 -629.91,-129.44 -7.68,37.35"
         style="fill:#d4d6d3;fill-opacity:1;fill-rule:nonzero;stroke:none"
         id="path324" /><path
         d="m 1585.89,2064.45 922.94,189.65 7.67,-37.35 -922.93,-189.65 -7.68,37.35"
         style="fill:#d4d6d3;fill-opacity:1;fill-rule:nonzero;stroke:none"
         id="path326" /><path
         d="m 1605.26,1970.19 922.94,189.65 7.67,-37.35 -922.93,-189.66 -7.68,37.36"
         style="fill:#d4d6d3;fill-opacity:1;fill-rule:nonzero;stroke:none"
         id="path328" /><path
         d="m 1624.63,1875.92 922.93,189.66 7.68,-37.35 -922.93,-189.65 -7.68,37.34"
         style="fill:#d4d6d3;fill-opacity:1;fill-rule:nonzero;stroke:none"
         id="path330" /><path
         d="m 1644,1781.66 922.94,189.65 7.67,-37.34 -922.93,-189.66 -7.68,37.35"
         style="fill:#d4d6d3;fill-opacity:1;fill-rule:nonzero;stroke:none"
         id="path332" /><path
         d="m 1663.37,1687.39 922.94,189.66 7.67,-37.35 -922.93,-189.65 -7.68,37.34"
         style="fill:#d4d6d3;fill-opacity:1;fill-rule:nonzero;stroke:none"
         id="path334" /><path
         d="m 1682.74,1593.14 922.94,189.65 7.67,-37.35 -922.93,-189.66 -7.68,37.36"
         style="fill:#d4d6d3;fill-opacity:1;fill-rule:nonzero;stroke:none"
         id="path336" /><path
         d="m 1702.11,1498.87 922.94,189.66 7.67,-37.36 -922.93,-189.64 -7.68,37.34"
         style="fill:#d4d6d3;fill-opacity:1;fill-rule:nonzero;stroke:none"
         id="path338" /><path
         d="m 1721.48,1404.61 922.94,189.65 7.67,-37.34 -922.93,-189.66 -7.68,37.35"
         style="fill:#d4d6d3;fill-opacity:1;fill-rule:nonzero;stroke:none"
         id="path340" /><path
         d="m 1740.85,1310.34 922.94,189.66 7.67,-37.35 -922.94,-189.65 -7.67,37.34"
         style="fill:#d4d6d3;fill-opacity:1;fill-rule:nonzero;stroke:none"
         id="path342" /><path
         d="m 5122.12,2404.05 c -423.9,-30.79 -846.95,-61.59 -1269.06,-92.38 -144.54,549.42 10.31,1098.83 -102.31,1648.24 423.9,30.8 846.96,61.59 1269.08,92.38 144.38,-549.41 -10.48,-1098.83 102.29,-1648.24"
         style="fill:#e7e8e5;fill-opacity:1;fill-rule:nonzero;stroke:none"
         id="path344" /><path
         d="m 5122.12,2404.05 c -113.93,549.33 39.67,1098.66 -105.77,1647.99 1.47,-1.09 2.93,-2.18 4.4,-3.27 -422.06,-31.28 -845.1,-62.55 -1268.98,-93.83 1.3,1.77 2.61,3.55 3.91,5.33 112.11,-549.46 -43.4,-1098.92 100.44,-1648.37 -1.29,0.95 -2.58,1.91 -3.87,2.87 422.44,29.76 845.76,59.52 1269.87,89.28 m 0,0 c -423.68,-31.83 -846.47,-63.65 -1268.24,-95.47 -1.01,-0.08 -2.04,-0.16 -3.05,-0.23 -0.28,1.03 -0.55,2.07 -0.82,3.1 -145.24,549.37 8.93,1098.74 -104.19,1648.11 -0.34,1.66 -0.69,3.32 -1.03,4.98 1.64,0.12 3.29,0.23 4.93,0.35 423.91,30.31 847.01,60.62 1269.17,90.93 1.16,0.09 2.33,0.17 3.49,0.25 0.31,-1.18 0.62,-2.35 0.93,-3.52 143.31,-549.5 -12.8,-1099 98.81,-1648.5"
         style="fill:#d4d6d3;fill-opacity:1;fill-rule:nonzero;stroke:none"
         id="path346" /><path
         d="m 3903.92,3724.46 c 237.71,17.13 475.23,34.25 712.55,51.37 1.54,-14.11 2.94,-28.22 4.22,-42.33 -237.64,-17.12 -475.46,-34.24 -713.45,-51.36 -0.99,14.11 -2.1,28.22 -3.32,42.32"
         style="fill:#d4d6d3;fill-opacity:1;fill-rule:nonzero;stroke:none"
         id="path348" /><path
         d="m 3911.01,3617.64 c 238.38,17.12 476.62,34.24 714.7,51.36 0.92,-14.11 1.73,-28.22 2.44,-42.32 -238.33,-17.13 -476.82,-34.25 -715.43,-51.36 -0.48,14.1 -1.04,28.21 -1.71,42.32"
         style="fill:#d4d6d3;fill-opacity:1;fill-rule:nonzero;stroke:none"
         id="path350" /><path
         d="m 3914.33,3510.81 c 238.91,17.12 477.72,34.24 716.4,51.37 0.42,-14.12 0.76,-28.22 1.03,-42.33 -238.88,-17.12 -477.88,-34.24 -716.96,-51.37 -0.09,14.11 -0.24,28.23 -0.47,42.33"
         style="fill:#d4d6d3;fill-opacity:1;fill-rule:nonzero;stroke:none"
         id="path352" /><path
         d="m 3914.8,3403.98 c 350.61,25.09 701.07,50.17 1051.3,75.25 0.13,-14.1 0.18,-28.21 0.18,-42.32 -350.46,-25.08 -701.11,-50.17 -1051.88,-75.25 0.18,14.11 0.31,28.22 0.4,42.32"
         style="fill:#d4d6d3;fill-opacity:1;fill-rule:nonzero;stroke:none"
         id="path354" /><path
         d="m 3913.35,3297.16 c 350.95,25.08 701.82,50.16 1052.56,75.25 -0.16,-14.11 -0.36,-28.22 -0.59,-42.32 -350.87,-25.09 -701.85,-50.18 -1052.87,-75.26 0.31,14.11 0.62,28.22 0.9,42.33"
         style="fill:#d4d6d3;fill-opacity:1;fill-rule:nonzero;stroke:none"
         id="path356" /><path
         d="m 3910.9,3190.33 c 351.08,25.08 702.15,50.17 1053.16,75.25 -0.3,-14.11 -0.64,-28.22 -0.98,-42.33 -351.06,-25.08 -702.16,-50.16 -1053.22,-75.25 0.34,14.11 0.69,28.22 1.04,42.33"
         style="fill:#d4d6d3;fill-opacity:1;fill-rule:nonzero;stroke:none"
         id="path358" /><path
         d="m 3908.38,3083.5 c 350.98,25.09 702.05,50.17 1053.12,75.26 -0.35,-14.12 -0.69,-28.22 -1.01,-42.33 -351.04,-25.08 -702.04,-50.17 -1052.92,-75.26 0.24,14.11 0.51,28.22 0.81,42.33"
         style="fill:#d4d6d3;fill-opacity:1;fill-rule:nonzero;stroke:none"
         id="path360" /><path
         d="m 3906.72,2976.67 c 350.67,25.08 701.5,50.17 1052.42,75.26 -0.27,-14.11 -0.49,-28.22 -0.68,-42.33 -350.8,-25.09 -701.47,-50.17 -1051.96,-75.25 0.02,14.1 0.09,28.21 0.22,42.32"
         style="fill:#d4d6d3;fill-opacity:1;fill-rule:nonzero;stroke:none"
         id="path362" /><path
         d="m 3906.83,2869.85 c 350.15,25.08 700.53,50.17 1051.07,75.25 -0.04,-14.11 -0.04,-28.22 0.03,-42.33 -350.34,-25.08 -700.47,-50.17 -1050.35,-75.25 -0.33,14.11 -0.57,28.21 -0.75,42.33"
         style="fill:#d4d6d3;fill-opacity:1;fill-rule:nonzero;stroke:none"
         id="path364" /><path
         d="m 3909.65,2763.01 c 349.42,25.09 699.12,50.18 1049.08,75.26 0.28,-14.11 0.64,-28.22 1.09,-42.32 -349.66,-25.09 -699.04,-50.18 -1048.09,-75.26 -0.79,14.11 -1.48,28.22 -2.08,42.32"
         style="fill:#d4d6d3;fill-opacity:1;fill-rule:nonzero;stroke:none"
         id="path366" /><path
         d="m 3916.12,2656.19 c 348.44,25.08 697.27,50.17 1046.41,75.25 0.74,-14.1 1.58,-28.22 2.53,-42.33 -348.76,-25.08 -697.17,-50.16 -1045.17,-75.25 -1.39,14.11 -2.64,28.22 -3.77,42.33"
         style="fill:#d4d6d3;fill-opacity:1;fill-rule:nonzero;stroke:none"
         id="path368" /><path
         d="m 3927.14,2549.36 c 347.26,25.09 694.98,50.17 1043.1,75.25 1.31,-14.11 2.76,-28.22 4.34,-42.32 -347.66,-25.09 -694.88,-50.17 -1041.61,-75.26 -2.09,14.11 -4.04,28.22 -5.83,42.33"
         style="fill:#d4d6d3;fill-opacity:1;fill-rule:nonzero;stroke:none"
         id="path370" /><path
         d="m 4941.68,1816 c -437.59,74.21 -869.79,148.42 -1297.87,222.63 55.36,542.53 329.83,1085.07 315.76,1627.6 437.59,-74.21 869.78,-148.42 1297.88,-222.63 C 5202.08,2901.07 4927.6,2358.53 4941.68,1816"
         style="fill:#fabb1e;fill-opacity:1;fill-rule:nonzero;stroke:none"
         id="path372" /><path
         d="m 4941.68,1816 c -34.3,5.81 -68.53,11.63 -102.76,17.44 -0.82,0.14 -1.67,0.29 -2.5,0.43 -141.94,24.11 -283.34,48.24 -424.21,72.36 v 132.17 h -767.06 c -0.44,0.08 -0.9,0.16 -1.34,0.23 53.98,529.02 316.3,1058.05 316.28,1587.07 0,13.51 -0.17,27.02 -0.52,40.53 437.59,-74.21 869.78,-148.42 1297.88,-222.63 -26.11,-255.83 -100.94,-511.66 -171.26,-767.5 -0.3,-1.09 -0.62,-2.24 -0.92,-3.33 -61.38,-223.42 -119.12,-446.79 -137.82,-670.21 -0.07,-0.83 -0.14,-1.67 -0.21,-2.5 -3.94,-47.85 -6.09,-95.68 -6.08,-143.53 0,-13.51 0.17,-27.02 0.52,-40.53"
         style="fill:#fef1c3;fill-opacity:1;fill-rule:nonzero;stroke:none"
         id="path374" /><path
         d="m 4067.24,3404.64 c 237.25,-41.26 473.28,-82.52 708.35,-123.78 -2.41,-13.93 -4.94,-27.86 -7.57,-41.79 -234.43,41.25 -469.77,82.51 -706.23,123.78 1.95,13.93 3.77,27.86 5.45,41.79"
         style="fill:#d4d6d3;fill-opacity:1;fill-rule:nonzero;stroke:none"
         id="path376" /><path
         d="m 4052.03,3299.15 c 235.36,-41.26 469.72,-82.52 703.29,-123.78 -2.93,-13.93 -5.94,-27.86 -9.03,-41.8 -233.07,41.27 -466.84,82.53 -701.56,123.79 2.55,13.93 4.98,27.86 7.3,41.79"
         style="fill:#d4d6d3;fill-opacity:1;fill-rule:nonzero;stroke:none"
         id="path378" /><path
         d="m 4032.42,3193.66 c 233.81,-41.25 466.81,-82.52 699.2,-123.78 -3.31,-13.93 -6.7,-27.86 -10.15,-41.8 -232.02,41.27 -464.57,82.53 -697.85,123.79 3.03,13.93 5.96,27.86 8.8,41.79"
         style="fill:#d4d6d3;fill-opacity:1;fill-rule:nonzero;stroke:none"
         id="path380" /><path
         d="m 4009.26,3088.17 c 340.77,-60.45 680.19,-120.91 1018.98,-181.36 -3.72,-13.93 -7.47,-27.86 -11.24,-41.8 -338.53,60.46 -677.53,120.91 -1017.72,181.37 3.39,13.93 6.72,27.86 9.98,41.79"
         style="fill:#d4d6d3;fill-opacity:1;fill-rule:nonzero;stroke:none"
         id="path382" /><path
         d="m 3983.37,2982.68 c 339.44,-60.45 677.95,-120.91 1016.23,-181.36 -3.84,-13.93 -7.69,-27.87 -11.54,-41.8 -338.2,60.46 -676.47,120.91 -1015.52,181.37 3.65,13.93 7.26,27.86 10.83,41.79"
         style="fill:#d4d6d3;fill-opacity:1;fill-rule:nonzero;stroke:none"
         id="path384" /><path
         d="m 3955.57,2877.19 c 338.6,-60.45 676.66,-120.91 1014.91,-181.36 -3.84,-13.93 -7.68,-27.86 -11.49,-41.79 -338.36,60.45 -676.38,120.9 -1014.76,181.36 3.8,13.93 7.59,27.86 11.34,41.79"
         style="fill:#d4d6d3;fill-opacity:1;fill-rule:nonzero;stroke:none"
         id="path386" /><path
         d="m 3926.72,2771.71 c 338.22,-60.46 676.31,-120.92 1015,-181.37 -3.74,-13.93 -7.46,-27.87 -11.12,-41.8 -338.99,60.46 -677.23,120.91 -1015.43,181.36 3.85,13.94 7.7,27.87 11.55,41.81"
         style="fill:#d4d6d3;fill-opacity:1;fill-rule:nonzero;stroke:none"
         id="path388" /><path
         d="m 3897.61,2666.21 c 338.32,-60.45 676.93,-120.91 1016.53,-181.36 -3.53,-13.93 -7,-27.87 -10.41,-41.8 -340.1,60.46 -679.04,120.91 -1017.52,181.37 3.78,13.93 7.59,27.86 11.4,41.79"
         style="fill:#d4d6d3;fill-opacity:1;fill-rule:nonzero;stroke:none"
         id="path390" /><path
         d="m 3869.11,2560.72 c 338.89,-60.45 678.48,-120.9 1019.47,-181.36 -3.21,-13.93 -6.34,-27.86 -9.38,-41.8 -341.68,60.46 -681.79,120.91 -1021.05,181.37 3.61,13.93 7.27,27.86 10.96,41.79"
         style="fill:#d4d6d3;fill-opacity:1;fill-rule:nonzero;stroke:none"
         id="path392" /><path
         d="m 3842.01,2455.23 c 339.94,-60.45 681,-120.91 1023.86,-181.36 -2.79,-13.94 -5.46,-27.87 -8.04,-41.8 -343.73,60.46 -685.49,120.91 -1025.98,181.36 3.32,13.94 6.71,27.87 10.16,41.8"
         style="fill:#d4d6d3;fill-opacity:1;fill-rule:nonzero;stroke:none"
         id="path394" /><path
         d="m 3817.17,2349.74 c 341.46,-60.45 684.45,-120.9 1029.65,-181.36 -2.23,-13.93 -4.35,-27.87 -6.34,-41.8 -346.27,60.46 -690.15,120.91 -1032.35,181.37 2.92,13.93 5.94,27.86 9.04,41.79"
         style="fill:#d4d6d3;fill-opacity:1;fill-rule:nonzero;stroke:none"
         id="path396" /><path
         d="m 3795.4,2244.25 c 343.46,-60.45 688.86,-120.91 1036.87,-181.37 -1.58,-13.92 -3.02,-27.86 -4.32,-41.78 -349.27,60.45 -695.76,120.9 -1040.14,181.36 2.42,13.93 4.95,27.86 7.59,41.79"
         style="fill:#d4d6d3;fill-opacity:1;fill-rule:nonzero;stroke:none"
         id="path398" /><path
         d="m 2169.36,412.602 h 2242.85 v 1625.8 H 2169.36 Z"
         style="fill:#fabb1e;fill-opacity:1;fill-rule:nonzero;stroke:none"
         id="path400" /><path
         d="M 2961.82,2206.77 H 2169.36 V 2038.4 h 838 l -45.54,168.37"
         style="fill:#fabb1e;fill-opacity:1;fill-rule:nonzero;stroke:none"
         id="path402" /><path
         d="M 4412.21,412.602 H 2169.36 V 2038.4 H 4412.21 V 1906.23 412.602"
         style="fill:#f4ac12;fill-opacity:1;fill-rule:nonzero;stroke:none"
         id="path404" /><path
         d="m 3007.36,2038.4 h -838 v 168.37 h 792.46 l 45.54,-168.37"
         style="fill:#f4ac12;fill-opacity:1;fill-rule:nonzero;stroke:none"
         id="path406" /><path
         d="m 4397,1020.98 c -437.92,125.26 -866.08,249.11 -1287.55,371.76 106.01,495.44 402.96,980.83 423.18,1483.7 437.54,-118.01 865.38,-236.24 1286.58,-354.85 C 4711.77,2018.07 4415.14,1527.85 4397,1020.98"
         style="fill:#e7e8e5;fill-opacity:1;fill-rule:nonzero;stroke:none"
         id="path408" /><path
         d="m 4397,1020.98 c 16.94,507.22 312.66,997.74 418.74,1501.59 0.93,-1.4 1.86,-2.81 2.77,-4.21 -421.14,118.17 -848.83,235.96 -1286.06,353.52 1.76,1.07 3.51,2.13 5.27,3.19 -21.26,-502.69 -318.77,-987.93 -425.22,-1483.22 -0.82,1.23 -1.64,2.45 -2.45,3.67 421.13,-123.55 849.07,-248.33 1286.95,-374.54 z m 0,0 c -437.95,124.32 -866.35,247.23 -1288.15,368.96 -1.02,0.3 -2.03,0.59 -3.05,0.88 0.2,0.93 0.39,1.87 0.59,2.8 105.58,495.6 401.98,981.14 421.16,1484.18 0.05,1.53 0.11,3.05 0.16,4.57 1.7,-0.46 3.4,-0.92 5.1,-1.38 437.83,-118.44 865.82,-237.12 1287.08,-356.16 1.16,-0.33 2.32,-0.66 3.49,-0.99 -0.24,-1.07 -0.47,-2.15 -0.71,-3.23 C 4713.89,2017.41 4416.34,1527.52 4397,1020.98"
         style="fill:#d4d6d3;fill-opacity:1;fill-rule:nonzero;stroke:none"
         id="path410" /><path
         d="m 4327.62,1941.58 c -65.1,-173.85 -262.39,-270.77 -446.48,-216.39 -185.05,54.28 -280.62,238.06 -217.04,411.02 62.98,173.21 253.34,271.3 439.79,217.93 187.17,-53.55 289.66,-238.54 223.73,-412.56"
         style="fill:#33535f;fill-opacity:1;fill-rule:nonzero;stroke:none"
         id="path412" /><path
         d="m 3996.06,2039.12 c -75.51,-86.21 -151.86,-172.24 -226.38,-258.26 -112.34,84.1 -152.72,225.74 -105.58,355.35 62.58,172.05 254.6,270.94 439.79,217.93 185.95,-53.19 289.24,-239.7 223.73,-412.56 -110.49,32.56 -220.99,65.07 -331.56,97.54"
         style="fill:#d4d6d3;fill-opacity:1;fill-rule:nonzero;stroke:none"
         id="path414" /><path
         d="m 3996.06,2039.12 c 65.83,-88.49 130.92,-177.04 197.44,-265.78 -91.33,-61.42 -206.81,-79.29 -312.36,-48.15 -183.83,53.91 -280.19,239.22 -217.04,411.02 62.58,172.05 254.6,270.94 439.79,217.93 185.95,-53.19 289.24,-239.7 223.73,-412.56 -110.49,32.56 -220.99,65.07 -331.56,97.54"
         style="fill:#d4d6d3;fill-opacity:1;fill-rule:nonzero;stroke:none"
         id="path416" /><path
         d="m 3996.06,2039.12 c -115.92,-19.39 -231.91,-38.72 -347.92,-57.99 -7.84,51.69 -2.2,104.87 15.96,155.08 62.58,172.05 254.6,270.94 439.79,217.93 185.95,-53.19 289.24,-239.7 223.73,-412.56 -110.49,32.56 -220.99,65.07 -331.56,97.54"
         style="fill:#fabb1e;fill-opacity:1;fill-rule:nonzero;stroke:none"
         id="path418" /><path
         d="m 3631.7,2658.31 c 177.71,-49.38 354.12,-98.82 529.46,-148.33 -3.06,-12.84 -6.22,-25.68 -9.5,-38.51 -174.67,49.52 -350.32,98.98 -527.21,148.38 2.55,12.81 4.97,25.63 7.25,38.46"
         style="fill:#d4d6d3;fill-opacity:1;fill-rule:nonzero;stroke:none"
         id="path420" /><path
         d="m 3591.54,1667.67 c 234.2,-69.03 469.49,-138.36 706.45,-208.04 -3.56,-12.8 -7.02,-25.6 -10.38,-38.42 -237.78,69.82 -473.77,139.27 -708.53,208.41 4.08,12.69 8.24,25.36 12.46,38.05"
         style="fill:#d4d6d3;fill-opacity:1;fill-rule:nonzero;stroke:none"
         id="path422" /><path
         d="m 3560.93,1571.6 c 235.74,-69.32 472.91,-138.97 712.1,-209 -3.02,-12.83 -5.92,-25.66 -8.71,-38.52 -240.17,70.18 -478.22,139.97 -714.67,209.42 3.67,12.7 7.44,25.41 11.28,38.1"
         style="fill:#d4d6d3;fill-opacity:1;fill-rule:nonzero;stroke:none"
         id="path424" /><path
         d="m 3533.5,1475.38 c 237.7,-69.66 477.18,-139.66 719.02,-210.07 -2.39,-12.87 -4.63,-25.74 -6.73,-38.63 -243.01,70.57 -483.52,140.73 -722.1,210.53 3.16,12.72 6.43,25.46 9.81,38.17"
         style="fill:#d4d6d3;fill-opacity:1;fill-rule:nonzero;stroke:none"
         id="path426" /><path
         d="m 3453.08,1666.65 c -28.41,8.36 -56.82,16.71 -85.22,25.05 4.25,12.65 8.56,25.3 12.93,37.94 28.33,-8.33 56.68,-16.66 85.05,-25 -4.32,-12.66 -8.57,-25.32 -12.76,-37.99"
         style="fill:#fabb1e;fill-opacity:1;fill-rule:nonzero;stroke:none"
         id="path428" /><path
         d="m 3422.77,1570.71 c -28.62,8.38 -57.22,16.76 -85.79,25.14 3.9,12.67 7.86,25.33 11.9,37.99 28.5,-8.36 57.02,-16.73 85.55,-25.11 -3.96,-12.66 -7.86,-25.35 -11.66,-38.02"
         style="fill:#33535f;fill-opacity:1;fill-rule:nonzero;stroke:none"
         id="path430" /><path
         d="m 3395.71,1474.59 c -28.86,8.43 -57.7,16.86 -86.5,25.28 3.43,12.68 6.96,25.37 10.58,38.04 28.71,-8.4 57.44,-16.8 86.2,-25.21 -3.52,-12.7 -6.96,-25.4 -10.28,-38.11"
         style="fill:#d4d6d3;fill-opacity:1;fill-rule:nonzero;stroke:none"
         id="path432" /><path
         d="M 4406.33,412.602 H 2163.47 L 1990.49,1903.52 H 4233.35 L 4406.33,412.602"
         style="fill:#fabb1e;fill-opacity:1;fill-rule:nonzero;stroke:none"
         id="path434" /><path
         d="m 2765.04,2057.91 h -792.47 l 17.92,-154.39 h 837.99 l -63.44,154.39"
         style="fill:#fabb1e;fill-opacity:1;fill-rule:nonzero;stroke:none"
         id="path436" /><path
         d="m 3524.24,3044.71 c -3.94,13.31 -4.83,26.63 -4.99,39.94 0.14,13.31 1.02,26.63 4.99,39.95 3.96,-13.32 4.85,-26.64 5,-39.95 -0.17,-13.31 -1.06,-26.63 -5,-39.94"
         style="fill:#17282f;fill-opacity:1;fill-rule:nonzero;stroke:none"
         id="path438" /><path
         d="m 3442.9,3021.19 c -10.07,9.55 -17.49,20.64 -24.3,32.09 -6.53,11.61 -12.42,23.58 -15.64,37.09 10.08,-9.55 17.52,-20.64 24.29,-32.09 6.52,-11.62 12.41,-23.59 15.65,-37.09"
         style="fill:#17282f;fill-opacity:1;fill-rule:nonzero;stroke:none"
         id="path440" /><path
         d="m 3384.22,2960.15 c -13.5,3.24 -25.47,9.13 -37.09,15.64 -11.46,6.79 -22.54,14.21 -32.09,24.3 13.51,-3.22 25.48,-9.11 37.09,-15.64 11.44,-6.81 22.54,-14.23 32.09,-24.3"
         style="fill:#17282f;fill-opacity:1;fill-rule:nonzero;stroke:none"
         id="path442" /><path
         d="m 3363.92,2877.95 c -13.31,-3.95 -26.63,-4.83 -39.94,-5 -13.32,0.14 -26.63,1.03 -39.94,5 13.31,3.96 26.62,4.85 39.94,4.99 13.31,-0.16 26.63,-1.05 39.94,-4.99"
         style="fill:#17282f;fill-opacity:1;fill-rule:nonzero;stroke:none"
         id="path444" /><path
         d="m 3387.45,2796.61 c -9.56,-10.07 -20.66,-17.5 -32.1,-24.3 -11.6,-6.53 -23.58,-12.42 -37.09,-15.65 9.55,10.1 20.63,17.52 32.1,24.3 11.61,6.51 23.58,12.41 37.09,15.65"
         style="fill:#17282f;fill-opacity:1;fill-rule:nonzero;stroke:none"
         id="path446" /><path
         d="m 3448.48,2737.93 c -3.24,-13.5 -9.13,-25.48 -15.64,-37.09 -6.78,-11.46 -14.21,-22.55 -24.3,-32.1 3.22,13.52 9.11,25.49 15.65,37.09 6.8,11.45 14.23,22.54 24.29,32.1"
         style="fill:#17282f;fill-opacity:1;fill-rule:nonzero;stroke:none"
         id="path448" /><path
         d="m 3530.69,2717.63 c 3.95,-13.32 4.82,-26.63 4.99,-39.94 -0.15,-13.32 -1.02,-26.63 -4.99,-39.95 -3.96,13.32 -4.85,26.63 -5,39.95 0.17,13.31 1.06,26.62 5,39.94"
         style="fill:#17282f;fill-opacity:1;fill-rule:nonzero;stroke:none"
         id="path450" /><path
         d="m 3612.03,2741.15 c 10.07,-9.56 17.49,-20.64 24.3,-32.09 6.53,-11.61 12.42,-23.58 15.64,-37.09 -10.09,9.55 -17.52,20.63 -24.3,32.09 -6.51,11.62 -12.4,23.59 -15.64,37.09"
         style="fill:#17282f;fill-opacity:1;fill-rule:nonzero;stroke:none"
         id="path452" /><path
         d="m 3670.71,2802.19 c 13.5,-3.24 25.47,-9.13 37.09,-15.64 11.46,-6.79 22.54,-14.21 32.09,-24.3 -13.52,3.22 -25.49,9.11 -37.09,15.64 -11.45,6.8 -22.54,14.23 -32.09,24.3"
         style="fill:#17282f;fill-opacity:1;fill-rule:nonzero;stroke:none"
         id="path454" /><path
         d="m 3691,2884.39 c 13.31,3.95 26.63,4.83 39.94,5 13.32,-0.14 26.64,-1.03 39.95,-5 -13.31,-3.96 -26.63,-4.85 -39.95,-4.99 -13.31,0.17 -26.63,1.05 -39.94,4.99"
         style="fill:#17282f;fill-opacity:1;fill-rule:nonzero;stroke:none"
         id="path456" /><path
         d="m 3667.48,2965.73 c 9.56,10.07 20.65,17.5 32.1,24.3 11.6,6.53 23.57,12.42 37.09,15.65 -9.55,-10.1 -20.64,-17.52 -32.1,-24.31 -11.61,-6.5 -23.59,-12.39 -37.09,-15.64"
         style="fill:#17282f;fill-opacity:1;fill-rule:nonzero;stroke:none"
         id="path458" /><path
         d="m 3606.44,3024.41 c 3.24,13.5 9.13,25.48 15.65,37.09 6.77,11.46 14.21,22.55 24.29,32.1 -3.22,-13.52 -9.11,-25.49 -15.64,-37.09 -6.81,-11.45 -14.23,-22.54 -24.3,-32.1"
         style="fill:#17282f;fill-opacity:1;fill-rule:nonzero;stroke:none"
         id="path460" /><path
         d="m 3565.08,1224.7 h 513.87 c 0,0 25.47,52.49 25.47,102.27 0,102.91 0,411.61 0,411.61 h -513.88 c 0,0 0,-312.71 0,-416.94 0,-41.69 -25.46,-96.94 -25.46,-96.94"
         style="fill:#33535f;fill-opacity:1;fill-rule:nonzero;stroke:none"
         id="path462" /><path
         d="m 3653.45,1617.13 c 60.43,4.96 120.86,6.11 181.3,6.37 60.43,-0.24 120.86,-1.38 181.29,-6.37 -60.43,-4.99 -120.86,-6.13 -181.29,-6.36 -60.44,0.26 -120.87,1.41 -181.3,6.36"
         style="fill:#ffffff;fill-opacity:1;fill-rule:nonzero;stroke:none"
         id="path464" /><path
         d="m 3653.45,1549.39 c 54.36,4.95 108.72,6.1 163.07,6.35 54.36,-0.22 108.71,-1.36 163.06,-6.35 -54.35,-4.99 -108.7,-6.15 -163.06,-6.37 -54.35,0.25 -108.71,1.41 -163.07,6.37"
         style="fill:#ffffff;fill-opacity:1;fill-rule:nonzero;stroke:none"
         id="path466" /><path
         d="m 3653.45,1481.63 c 47.55,4.96 95.09,6.11 142.64,6.37 47.54,-0.22 95.08,-1.38 142.63,-6.37 -47.55,-4.99 -95.09,-6.13 -142.63,-6.35 -47.55,0.25 -95.09,1.4 -142.64,6.35"
         style="fill:#ffffff;fill-opacity:1;fill-rule:nonzero;stroke:none"
         id="path468" /><path
         d="m 3653.45,1413.89 c 60.43,4.95 120.86,6.1 181.3,6.36 60.43,-0.23 120.86,-1.37 181.29,-6.36 -60.43,-4.99 -120.86,-6.14 -181.29,-6.37 -60.44,0.26 -120.87,1.41 -181.3,6.37"
         style="fill:#ffffff;fill-opacity:1;fill-rule:nonzero;stroke:none"
         id="path470" /></g></g></svg>
