<?xml version="1.0" encoding="utf-8"?>
<!-- Generator: Adobe Illustrator 25.2.1, SVG Export Plug-In . SVG Version: 6.00 Build 0)  -->
<svg version="1.1" id="Слой_1" xmlns="http://www.w3.org/2000/svg" xmlns:xlink="http://www.w3.org/1999/xlink" x="0px" y="0px"
	 viewBox="0 0 16 13" style="enable-background:new 0 0 16 13;" xml:space="preserve">
<style type="text/css">
	.st0{fill-rule:evenodd;clip-rule:evenodd;}
</style>
<path class="st0" d="M0.5,0h15C15.8,0,16,0.2,16,0.5S15.8,1,15.5,1h-15C0.2,1,0,0.8,0,0.5S0.2,0,0.5,0z M0.5,6h15
	C15.8,6,16,6.2,16,6.5S15.8,7,15.5,7h-15C0.2,7,0,6.8,0,6.5S0.2,6,0.5,6z M0.5,12h15c0.3,0,0.5,0.2,0.5,0.5S15.8,13,15.5,13h-15
	C0.2,13,0,12.8,0,12.5S0.2,12,0.5,12z"/>
</svg>
